<svg width="1420" height="888" viewBox="0 0 1420 888" fill="none" xmlns="http://www.w3.org/2000/svg">
<rect width="1420" height="888" fill="#1A1A1A"/>
<path d="M565.376 386.748V390.861C565.376 393.551 565.024 395.985 564.321 398.165C563.636 400.327 562.634 402.182 561.315 403.729C560.015 405.275 558.45 406.462 556.622 407.288C554.794 408.114 552.737 408.527 550.452 408.527C548.22 408.527 546.181 408.114 544.335 407.288C542.507 406.462 540.934 405.275 539.615 403.729C538.297 402.182 537.277 400.327 536.557 398.165C535.836 395.985 535.476 393.551 535.476 390.861V386.748C535.476 384.059 535.827 381.633 536.53 379.471C537.251 377.291 538.271 375.428 539.589 373.881C540.907 372.334 542.48 371.147 544.309 370.321C546.137 369.495 548.167 369.082 550.399 369.082C552.685 369.082 554.741 369.495 556.569 370.321C558.397 371.147 559.971 372.334 561.289 373.881C562.607 375.428 563.618 377.291 564.321 379.471C565.024 381.633 565.376 384.059 565.376 386.748ZM562.159 390.861V386.695C562.159 384.428 561.896 382.389 561.368 380.578C560.858 378.768 560.094 377.221 559.074 375.938C558.072 374.654 556.842 373.67 555.383 372.984C553.924 372.299 552.263 371.956 550.399 371.956C548.589 371.956 546.963 372.299 545.521 372.984C544.08 373.67 542.85 374.654 541.83 375.938C540.828 377.221 540.055 378.768 539.51 380.578C538.982 382.389 538.719 384.428 538.719 386.695V390.861C538.719 393.146 538.982 395.203 539.51 397.031C540.055 398.842 540.837 400.397 541.856 401.698C542.876 402.981 544.106 403.966 545.548 404.651C547.007 405.337 548.642 405.68 550.452 405.68C552.333 405.68 553.994 405.337 555.436 404.651C556.877 403.966 558.099 402.981 559.101 401.698C560.103 400.397 560.858 398.842 561.368 397.031C561.896 395.203 562.159 393.146 562.159 390.861ZM575.976 385.562V408H572.838V379.471H575.844L575.976 385.562ZM575.264 391.969L573.866 391.178C573.972 389.49 574.314 387.908 574.895 386.432C575.475 384.955 576.257 383.654 577.241 382.529C578.243 381.404 579.412 380.525 580.748 379.893C582.102 379.26 583.596 378.943 585.23 378.943C586.654 378.943 587.929 379.137 589.054 379.523C590.179 379.91 591.137 380.525 591.928 381.369C592.719 382.213 593.316 383.294 593.721 384.612C594.143 385.931 594.354 387.539 594.354 389.438V408H591.189V389.411C591.189 387.442 590.917 385.904 590.372 384.797C589.827 383.672 589.054 382.872 588.052 382.397C587.05 381.923 585.863 381.686 584.492 381.686C582.98 381.686 581.653 382.02 580.511 382.688C579.386 383.338 578.437 384.19 577.663 385.245C576.907 386.282 576.327 387.398 575.923 388.594C575.519 389.771 575.299 390.896 575.264 391.969ZM613.549 408.527C611.686 408.527 609.972 408.185 608.407 407.499C606.86 406.813 605.507 405.847 604.347 404.599C603.204 403.351 602.316 401.874 601.684 400.169C601.068 398.446 600.761 396.565 600.761 394.526V393.393C600.761 391.195 601.086 389.209 601.736 387.434C602.387 385.658 603.283 384.138 604.426 382.872C605.568 381.606 606.869 380.64 608.328 379.972C609.805 379.286 611.352 378.943 612.969 378.943C614.779 378.943 616.388 379.269 617.794 379.919C619.2 380.552 620.378 381.457 621.327 382.635C622.294 383.795 623.023 385.175 623.516 386.774C624.008 388.356 624.254 390.105 624.254 392.021V393.946H602.659V391.257H621.116V390.888C621.081 389.288 620.756 387.794 620.141 386.405C619.543 384.999 618.646 383.856 617.451 382.978C616.256 382.099 614.762 381.659 612.969 381.659C611.633 381.659 610.402 381.94 609.277 382.503C608.17 383.065 607.212 383.874 606.403 384.929C605.612 385.966 604.997 387.205 604.558 388.646C604.136 390.07 603.925 391.652 603.925 393.393V394.526C603.925 396.108 604.153 397.585 604.61 398.956C605.085 400.31 605.753 401.505 606.614 402.542C607.493 403.579 608.53 404.388 609.726 404.968C610.921 405.548 612.239 405.838 613.681 405.838C615.368 405.838 616.862 405.53 618.163 404.915C619.464 404.282 620.633 403.289 621.67 401.936L623.647 403.465C623.032 404.379 622.259 405.223 621.327 405.996C620.413 406.77 619.314 407.385 618.031 407.842C616.748 408.299 615.254 408.527 613.549 408.527ZM656.211 369.609V408H652.994V369.609H656.211ZM669.368 369.609V372.404H639.863V369.609H669.368ZM676.013 384.19V408H672.875V379.471H675.934L676.013 384.19ZM686.111 379.26L686.032 382.16C685.681 382.107 685.338 382.063 685.004 382.028C684.67 381.993 684.31 381.976 683.923 381.976C682.552 381.976 681.348 382.23 680.311 382.74C679.291 383.232 678.43 383.927 677.727 384.823C677.023 385.702 676.487 386.739 676.118 387.935C675.749 389.112 675.538 390.378 675.485 391.731L674.325 392.18C674.325 390.316 674.519 388.585 674.905 386.985C675.292 385.386 675.881 383.988 676.672 382.793C677.48 381.58 678.491 380.64 679.704 379.972C680.935 379.286 682.376 378.943 684.028 378.943C684.433 378.943 684.828 378.979 685.215 379.049C685.619 379.102 685.918 379.172 686.111 379.26ZM694.575 379.471V408H691.438V379.471H694.575ZM690.884 371.218C690.884 370.62 691.068 370.119 691.438 369.715C691.824 369.293 692.352 369.082 693.02 369.082C693.688 369.082 694.215 369.293 694.602 369.715C695.006 370.119 695.208 370.62 695.208 371.218C695.208 371.798 695.006 372.299 694.602 372.721C694.215 373.125 693.688 373.327 693.02 373.327C692.352 373.327 691.824 373.125 691.438 372.721C691.068 372.299 690.884 371.798 690.884 371.218ZM713.718 405.812C715.054 405.812 716.302 405.565 717.462 405.073C718.64 404.563 719.606 403.816 720.362 402.832C721.136 401.83 721.575 400.608 721.681 399.167H724.687C724.599 400.978 724.045 402.595 723.025 404.019C722.023 405.425 720.705 406.532 719.07 407.341C717.453 408.132 715.669 408.527 713.718 408.527C711.731 408.527 709.974 408.167 708.444 407.446C706.933 406.726 705.667 405.724 704.647 404.44C703.628 403.14 702.854 401.628 702.327 399.905C701.817 398.165 701.562 396.293 701.562 394.289V393.182C701.562 391.178 701.817 389.314 702.327 387.592C702.854 385.852 703.628 384.34 704.647 383.057C705.667 381.756 706.933 380.745 708.444 380.024C709.956 379.304 711.705 378.943 713.691 378.943C715.73 378.943 717.559 379.356 719.176 380.183C720.811 381.009 722.111 382.178 723.078 383.689C724.062 385.201 724.599 386.994 724.687 389.068H721.681C721.593 387.539 721.188 386.221 720.468 385.113C719.747 384.006 718.798 383.153 717.62 382.556C716.442 381.958 715.133 381.659 713.691 381.659C712.074 381.659 710.694 381.976 709.552 382.608C708.409 383.224 707.478 384.076 706.757 385.166C706.054 386.238 705.535 387.469 705.201 388.857C704.867 390.229 704.7 391.67 704.7 393.182V394.289C704.7 395.818 704.858 397.277 705.175 398.666C705.509 400.037 706.027 401.259 706.73 402.331C707.451 403.403 708.383 404.256 709.525 404.889C710.686 405.504 712.083 405.812 713.718 405.812ZM734.179 367.5V408H731.041V367.5H734.179ZM752.082 379.471L738.74 392.707L733.071 398.191L732.597 395.106L737.158 390.176L748.101 379.471H752.082ZM749.34 408L737.422 393.182L739.162 390.466L753.137 408H749.34ZM785.041 393.683H775.048V388.436H785.041C786.781 388.436 788.188 388.154 789.26 387.592C790.332 387.029 791.114 386.256 791.606 385.271C792.116 384.27 792.371 383.127 792.371 381.844C792.371 380.631 792.116 379.497 791.606 378.442C791.114 377.37 790.332 376.509 789.26 375.858C788.188 375.208 786.781 374.883 785.041 374.883H777.078V408H770.46V369.609H785.041C788.012 369.609 790.534 370.137 792.608 371.191C794.7 372.229 796.291 373.67 797.381 375.516C798.471 377.344 799.016 379.436 799.016 381.791C799.016 384.27 798.471 386.396 797.381 388.172C796.291 389.947 794.7 391.31 792.608 392.259C790.534 393.208 788.012 393.683 785.041 393.683ZM802.733 394.052V393.445C802.733 391.389 803.032 389.481 803.63 387.724C804.228 385.948 805.089 384.41 806.214 383.109C807.356 381.791 808.745 380.771 810.38 380.051C812.032 379.312 813.896 378.943 815.97 378.943C818.062 378.943 819.925 379.312 821.56 380.051C823.212 380.771 824.609 381.791 825.752 383.109C826.895 384.41 827.765 385.948 828.362 387.724C828.96 389.481 829.259 391.389 829.259 393.445V394.052C829.259 396.108 828.96 398.016 828.362 399.773C827.765 401.531 826.895 403.069 825.752 404.388C824.609 405.688 823.221 406.708 821.586 407.446C819.951 408.167 818.097 408.527 816.022 408.527C813.931 408.527 812.059 408.167 810.406 407.446C808.771 406.708 807.383 405.688 806.24 404.388C805.098 403.069 804.228 401.531 803.63 399.773C803.032 398.016 802.733 396.108 802.733 394.052ZM809.088 393.445V394.052C809.088 395.335 809.22 396.548 809.483 397.69C809.747 398.833 810.16 399.835 810.723 400.696C811.285 401.558 812.006 402.234 812.885 402.727C813.764 403.219 814.81 403.465 816.022 403.465C817.2 403.465 818.22 403.219 819.081 402.727C819.96 402.234 820.681 401.558 821.243 400.696C821.806 399.835 822.219 398.833 822.482 397.69C822.764 396.548 822.904 395.335 822.904 394.052V393.445C822.904 392.18 822.764 390.984 822.482 389.859C822.219 388.717 821.797 387.706 821.217 386.827C820.654 385.948 819.934 385.263 819.055 384.771C818.193 384.261 817.165 384.006 815.97 384.006C814.774 384.006 813.737 384.261 812.858 384.771C811.997 385.263 811.285 385.948 810.723 386.827C810.16 387.706 809.747 388.717 809.483 389.859C809.22 390.984 809.088 392.18 809.088 393.445ZM840.887 385.562V408H834.532V379.471H840.518L840.887 385.562ZM839.753 392.681L837.696 392.654C837.714 390.633 837.995 388.778 838.54 387.091C839.103 385.403 839.876 383.953 840.86 382.74C841.862 381.527 843.058 380.596 844.446 379.945C845.835 379.277 847.382 378.943 849.087 378.943C850.458 378.943 851.697 379.137 852.805 379.523C853.93 379.893 854.888 380.499 855.679 381.343C856.487 382.187 857.103 383.285 857.524 384.639C857.946 385.975 858.157 387.618 858.157 389.569V408H851.776V389.543C851.776 388.172 851.574 387.091 851.17 386.3C850.783 385.491 850.212 384.92 849.456 384.586C848.718 384.234 847.795 384.059 846.688 384.059C845.598 384.059 844.622 384.287 843.761 384.744C842.899 385.201 842.17 385.825 841.572 386.616C840.992 387.407 840.544 388.321 840.228 389.358C839.911 390.396 839.753 391.503 839.753 392.681ZM872.923 404.889L880.675 379.471H887.478L876.034 412.351C875.771 413.054 875.428 413.818 875.006 414.645C874.584 415.471 874.03 416.253 873.345 416.991C872.677 417.747 871.842 418.354 870.84 418.811C869.838 419.285 868.625 419.522 867.201 419.522C866.639 419.522 866.094 419.47 865.566 419.364C865.057 419.276 864.573 419.18 864.116 419.074L864.09 414.223C864.266 414.24 864.477 414.258 864.723 414.275C864.986 414.293 865.197 414.302 865.355 414.302C866.41 414.302 867.289 414.17 867.992 413.906C868.695 413.66 869.267 413.256 869.706 412.693C870.163 412.131 870.55 411.375 870.866 410.426L872.923 404.889ZM868.546 379.471L875.322 400.828L876.456 407.525L872.053 408.659L861.69 379.471H868.546Z" fill="white"/>
<path d="M617.696 463.203V476H616V463.203H617.696ZM636.385 463.203V476H634.68L628.237 466.13V476H626.541V463.203H628.237L634.706 473.1V463.203H636.385ZM646.847 463.203V476H645.15V463.203H646.847ZM652.208 468.96V470.349H646.478V468.96H652.208ZM653.078 463.203V464.592H646.478V463.203H653.078ZM662.679 463.203V476H660.983V463.203H662.679ZM681.368 463.203V476H679.663L673.22 466.13V476H671.524V463.203H673.22L679.689 473.1V463.203H681.368ZM691.953 463.203V476H690.257V463.203H691.953ZM705.263 463.203V476H703.593V463.203H705.263ZM709.376 463.203V464.592H699.488V463.203H709.376ZM717.764 463.203L721.086 469.628L724.417 463.203H726.342L721.93 471.219V476H720.234V471.219L715.822 463.203H717.764ZM748.69 470.981H745.271V469.602H748.69C749.352 469.602 749.888 469.496 750.299 469.285C750.709 469.074 751.008 468.781 751.195 468.406C751.388 468.031 751.485 467.604 751.485 467.123C751.485 466.684 751.388 466.271 751.195 465.884C751.008 465.497 750.709 465.187 750.299 464.952C749.888 464.712 749.352 464.592 748.69 464.592H745.667V476H743.97V463.203H748.69C749.657 463.203 750.474 463.37 751.142 463.704C751.81 464.038 752.317 464.501 752.663 465.093C753.009 465.679 753.181 466.35 753.181 467.105C753.181 467.926 753.009 468.626 752.663 469.206C752.317 469.786 751.81 470.229 751.142 470.533C750.474 470.832 749.657 470.981 748.69 470.981ZM770.938 469.197V470.006C770.938 470.967 770.818 471.828 770.578 472.59C770.338 473.352 769.992 473.999 769.541 474.532C769.09 475.065 768.548 475.473 767.915 475.754C767.288 476.035 766.585 476.176 765.806 476.176C765.05 476.176 764.355 476.035 763.723 475.754C763.096 475.473 762.551 475.065 762.088 474.532C761.631 473.999 761.276 473.352 761.024 472.59C760.772 471.828 760.646 470.967 760.646 470.006V469.197C760.646 468.236 760.77 467.378 761.016 466.622C761.268 465.86 761.622 465.213 762.079 464.68C762.536 464.141 763.078 463.73 763.705 463.449C764.338 463.168 765.032 463.027 765.788 463.027C766.567 463.027 767.271 463.168 767.897 463.449C768.53 463.73 769.072 464.141 769.523 464.68C769.98 465.213 770.329 465.86 770.569 466.622C770.815 467.378 770.938 468.236 770.938 469.197ZM769.26 470.006V469.18C769.26 468.418 769.181 467.744 769.022 467.158C768.87 466.572 768.645 466.08 768.346 465.682C768.047 465.283 767.681 464.981 767.247 464.776C766.819 464.571 766.333 464.469 765.788 464.469C765.261 464.469 764.783 464.571 764.355 464.776C763.934 464.981 763.57 465.283 763.266 465.682C762.967 466.08 762.735 466.572 762.571 467.158C762.407 467.744 762.325 468.418 762.325 469.18V470.006C762.325 470.773 762.407 471.453 762.571 472.045C762.735 472.631 762.97 473.126 763.274 473.53C763.585 473.929 763.951 474.23 764.373 474.436C764.801 474.641 765.278 474.743 765.806 474.743C766.356 474.743 766.846 474.641 767.273 474.436C767.701 474.23 768.062 473.929 768.354 473.53C768.653 473.126 768.879 472.631 769.031 472.045C769.184 471.453 769.26 470.773 769.26 470.006ZM789.091 469.197V470.006C789.091 470.967 788.971 471.828 788.731 472.59C788.49 473.352 788.145 473.999 787.694 474.532C787.242 475.065 786.7 475.473 786.068 475.754C785.441 476.035 784.737 476.176 783.958 476.176C783.202 476.176 782.508 476.035 781.875 475.754C781.248 475.473 780.703 475.065 780.24 474.532C779.783 473.999 779.429 473.352 779.177 472.59C778.925 471.828 778.799 470.967 778.799 470.006V469.197C778.799 468.236 778.922 467.378 779.168 466.622C779.42 465.86 779.775 465.213 780.232 464.68C780.689 464.141 781.231 463.73 781.858 463.449C782.49 463.168 783.185 463.027 783.941 463.027C784.72 463.027 785.423 463.168 786.05 463.449C786.683 463.73 787.225 464.141 787.676 464.68C788.133 465.213 788.482 465.86 788.722 466.622C788.968 467.378 789.091 468.236 789.091 469.197ZM787.412 470.006V469.18C787.412 468.418 787.333 467.744 787.175 467.158C787.023 466.572 786.797 466.08 786.498 465.682C786.199 465.283 785.833 464.981 785.4 464.776C784.972 464.571 784.486 464.469 783.941 464.469C783.413 464.469 782.936 464.571 782.508 464.776C782.086 464.981 781.723 465.283 781.418 465.682C781.119 466.08 780.888 466.572 780.724 467.158C780.56 467.744 780.478 468.418 780.478 469.18V470.006C780.478 470.773 780.56 471.453 780.724 472.045C780.888 472.631 781.122 473.126 781.427 473.53C781.737 473.929 782.104 474.23 782.526 474.436C782.953 474.641 783.431 474.743 783.958 474.743C784.509 474.743 784.998 474.641 785.426 474.436C785.854 474.23 786.214 473.929 786.507 473.53C786.806 473.126 787.031 472.631 787.184 472.045C787.336 471.453 787.412 470.773 787.412 470.006ZM805.152 474.62V476H798.753V474.62H805.152ZM799.087 463.203V476H797.391V463.203H799.087Z" fill="#919191"/>
</svg>
