<svg width="1420" height="888" viewBox="0 0 1420 888" fill="none" xmlns="http://www.w3.org/2000/svg">
<rect width="1420" height="888" fill="#1A1A1A"/>
<path d="M547.367 398.561C547.367 397.506 547.191 396.565 546.84 395.739C546.488 394.913 545.908 394.175 545.1 393.524C544.309 392.856 543.236 392.241 541.883 391.679C540.547 391.099 538.877 390.527 536.873 389.965C534.957 389.42 533.226 388.822 531.679 388.172C530.132 387.521 528.805 386.774 527.697 385.931C526.607 385.087 525.772 384.103 525.192 382.978C524.612 381.835 524.322 380.508 524.322 378.996C524.322 377.52 524.639 376.175 525.271 374.962C525.904 373.749 526.792 372.703 527.935 371.824C529.095 370.945 530.457 370.269 532.021 369.794C533.604 369.319 535.335 369.082 537.216 369.082C539.905 369.082 542.226 369.592 544.177 370.611C546.146 371.631 547.666 373.011 548.738 374.751C549.828 376.474 550.373 378.407 550.373 380.552H547.13C547.13 378.882 546.734 377.396 545.943 376.096C545.17 374.777 544.045 373.749 542.568 373.011C541.109 372.255 539.325 371.877 537.216 371.877C535.106 371.877 533.331 372.202 531.89 372.853C530.466 373.485 529.385 374.338 528.646 375.41C527.926 376.465 527.565 377.643 527.565 378.943C527.565 379.857 527.741 380.701 528.093 381.475C528.444 382.23 529.016 382.942 529.807 383.61C530.615 384.261 531.679 384.876 532.997 385.456C534.315 386.019 535.941 386.555 537.875 387.064C539.914 387.627 541.725 388.251 543.307 388.937C544.889 389.622 546.225 390.413 547.314 391.31C548.404 392.188 549.23 393.217 549.793 394.395C550.355 395.572 550.637 396.943 550.637 398.508C550.637 400.072 550.303 401.479 549.635 402.727C548.984 403.957 548.062 405.003 546.866 405.864C545.688 406.726 544.291 407.385 542.674 407.842C541.074 408.299 539.325 408.527 537.427 408.527C535.722 408.527 534.025 408.308 532.338 407.868C530.65 407.429 529.104 406.752 527.697 405.838C526.309 404.906 525.192 403.711 524.349 402.252C523.522 400.793 523.109 399.053 523.109 397.031H526.326C526.326 398.648 526.651 400.011 527.302 401.118C527.952 402.226 528.813 403.122 529.886 403.808C530.976 404.493 532.171 404.994 533.472 405.311C534.79 405.609 536.108 405.759 537.427 405.759C539.448 405.759 541.197 405.46 542.674 404.862C544.168 404.265 545.319 403.43 546.128 402.357C546.954 401.268 547.367 400.002 547.367 398.561ZM560.05 367.5V408H556.912V367.5H560.05ZM559.338 391.969L557.94 391.178C558.046 389.49 558.389 387.908 558.969 386.432C559.549 384.955 560.331 383.654 561.315 382.529C562.317 381.404 563.486 380.525 564.822 379.893C566.176 379.26 567.67 378.943 569.305 378.943C570.729 378.943 572.003 379.137 573.128 379.523C574.253 379.91 575.211 380.525 576.002 381.369C576.793 382.213 577.391 383.294 577.795 384.612C578.217 385.931 578.428 387.539 578.428 389.438V408H575.264V389.411C575.264 387.442 574.991 385.904 574.446 384.797C573.901 383.672 573.128 382.872 572.126 382.397C571.124 381.923 569.938 381.686 568.566 381.686C567.055 381.686 565.728 382.02 564.585 382.688C563.46 383.338 562.511 384.19 561.737 385.245C560.981 386.282 560.401 387.398 559.997 388.594C559.593 389.771 559.373 390.896 559.338 391.969ZM603.898 402.885V388.172C603.898 386.818 603.617 385.649 603.055 384.665C602.492 383.681 601.666 382.925 600.576 382.397C599.486 381.87 598.142 381.606 596.542 381.606C595.065 381.606 593.747 381.87 592.587 382.397C591.444 382.907 590.539 383.602 589.871 384.48C589.221 385.342 588.896 386.3 588.896 387.354L585.731 387.328C585.731 386.256 585.995 385.219 586.522 384.217C587.05 383.215 587.797 382.318 588.764 381.527C589.73 380.736 590.882 380.112 592.218 379.655C593.571 379.181 595.057 378.943 596.674 378.943C598.713 378.943 600.506 379.286 602.053 379.972C603.617 380.657 604.839 381.686 605.718 383.057C606.597 384.428 607.036 386.15 607.036 388.225V402.015C607.036 402.999 607.106 404.019 607.247 405.073C607.405 406.128 607.625 406.998 607.906 407.684V408H604.558C604.347 407.367 604.18 406.576 604.057 405.627C603.951 404.66 603.898 403.746 603.898 402.885ZM604.637 391.389L604.689 393.814H598.493C596.876 393.814 595.426 393.964 594.143 394.263C592.877 394.544 591.805 394.966 590.926 395.528C590.047 396.073 589.37 396.732 588.896 397.506C588.438 398.279 588.21 399.158 588.21 400.143C588.21 401.162 588.465 402.094 588.975 402.938C589.502 403.781 590.24 404.458 591.189 404.968C592.156 405.46 593.299 405.706 594.617 405.706C596.375 405.706 597.922 405.381 599.258 404.73C600.611 404.08 601.728 403.228 602.606 402.173C603.485 401.118 604.074 399.967 604.373 398.719L605.744 400.538C605.516 401.417 605.094 402.322 604.479 403.254C603.881 404.168 603.099 405.029 602.132 405.838C601.165 406.629 600.022 407.279 598.704 407.789C597.403 408.281 595.927 408.527 594.274 408.527C592.411 408.527 590.785 408.176 589.396 407.473C588.025 406.77 586.953 405.812 586.18 404.599C585.424 403.368 585.046 401.979 585.046 400.433C585.046 399.026 585.345 397.77 585.942 396.662C586.54 395.537 587.401 394.588 588.526 393.814C589.669 393.023 591.04 392.426 592.64 392.021C594.257 391.6 596.067 391.389 598.071 391.389H604.637ZM618.638 384.19V408H615.5V379.471H618.559L618.638 384.19ZM628.736 379.26L628.657 382.16C628.306 382.107 627.963 382.063 627.629 382.028C627.295 381.993 626.935 381.976 626.548 381.976C625.177 381.976 623.973 382.23 622.936 382.74C621.916 383.232 621.055 383.927 620.352 384.823C619.648 385.702 619.112 386.739 618.743 387.935C618.374 389.112 618.163 390.378 618.11 391.731L616.95 392.18C616.95 390.316 617.144 388.585 617.53 386.985C617.917 385.386 618.506 383.988 619.297 382.793C620.105 381.58 621.116 380.64 622.329 379.972C623.56 379.286 625.001 378.943 626.653 378.943C627.058 378.943 627.453 378.979 627.84 379.049C628.244 379.102 628.543 379.172 628.736 379.26ZM644.188 408.527C642.324 408.527 640.61 408.185 639.046 407.499C637.499 406.813 636.146 405.847 634.985 404.599C633.843 403.351 632.955 401.874 632.322 400.169C631.707 398.446 631.399 396.565 631.399 394.526V393.393C631.399 391.195 631.725 389.209 632.375 387.434C633.025 385.658 633.922 384.138 635.064 382.872C636.207 381.606 637.508 380.64 638.967 379.972C640.443 379.286 641.99 378.943 643.607 378.943C645.418 378.943 647.026 379.269 648.433 379.919C649.839 380.552 651.017 381.457 651.966 382.635C652.933 383.795 653.662 385.175 654.154 386.774C654.646 388.356 654.893 390.105 654.893 392.021V393.946H633.298V391.257H651.755V390.888C651.72 389.288 651.395 387.794 650.779 386.405C650.182 384.999 649.285 383.856 648.09 382.978C646.895 382.099 645.4 381.659 643.607 381.659C642.271 381.659 641.041 381.94 639.916 382.503C638.809 383.065 637.851 383.874 637.042 384.929C636.251 385.966 635.636 387.205 635.196 388.646C634.774 390.07 634.563 391.652 634.563 393.393V394.526C634.563 396.108 634.792 397.585 635.249 398.956C635.724 400.31 636.392 401.505 637.253 402.542C638.132 403.579 639.169 404.388 640.364 404.968C641.56 405.548 642.878 405.838 644.319 405.838C646.007 405.838 647.501 405.53 648.802 404.915C650.103 404.282 651.271 403.289 652.309 401.936L654.286 403.465C653.671 404.379 652.897 405.223 651.966 405.996C651.052 406.77 649.953 407.385 648.67 407.842C647.387 408.299 645.893 408.527 644.188 408.527ZM679.651 402.463V367.5H682.815V408H679.862L679.651 402.463ZM659.85 394.025V393.472C659.85 391.257 660.104 389.262 660.614 387.486C661.124 385.693 661.854 384.164 662.803 382.898C663.77 381.615 664.93 380.64 666.283 379.972C667.637 379.286 669.166 378.943 670.871 378.943C672.541 378.943 674.018 379.216 675.301 379.761C676.584 380.306 677.683 381.088 678.597 382.107C679.528 383.127 680.275 384.34 680.838 385.746C681.418 387.152 681.84 388.717 682.104 390.439V397.479C681.893 399.097 681.506 400.582 680.943 401.936C680.381 403.271 679.634 404.44 678.702 405.442C677.771 406.427 676.646 407.191 675.327 407.736C674.026 408.264 672.523 408.527 670.818 408.527C669.131 408.527 667.61 408.176 666.257 407.473C664.903 406.77 663.752 405.776 662.803 404.493C661.854 403.192 661.124 401.654 660.614 399.879C660.104 398.104 659.85 396.152 659.85 394.025ZM663.014 393.472V394.025C663.014 395.695 663.181 397.242 663.515 398.666C663.849 400.09 664.358 401.329 665.044 402.384C665.729 403.438 666.6 404.265 667.654 404.862C668.709 405.46 669.957 405.759 671.398 405.759C673.209 405.759 674.729 405.416 675.96 404.73C677.19 404.027 678.175 403.104 678.913 401.962C679.651 400.802 680.188 399.536 680.521 398.165V389.965C680.311 389.033 680.003 388.084 679.599 387.117C679.194 386.15 678.641 385.263 677.938 384.454C677.252 383.628 676.373 382.969 675.301 382.477C674.246 381.967 672.963 381.712 671.451 381.712C669.992 381.712 668.735 382.011 667.681 382.608C666.626 383.206 665.747 384.041 665.044 385.113C664.358 386.168 663.849 387.407 663.515 388.831C663.181 390.255 663.014 391.802 663.014 393.472ZM718.464 390.65H708.682L708.629 385.825H717.172C718.613 385.825 719.835 385.614 720.837 385.192C721.856 384.753 722.63 384.129 723.157 383.32C723.685 382.494 723.948 381.501 723.948 380.341C723.948 379.058 723.702 378.012 723.21 377.203C722.718 376.395 721.962 375.806 720.942 375.437C719.94 375.067 718.657 374.883 717.093 374.883H710.686V408H704.067V369.609H717.093C719.202 369.609 721.083 369.812 722.735 370.216C724.405 370.62 725.82 371.253 726.98 372.114C728.158 372.958 729.046 374.03 729.644 375.331C730.259 376.632 730.566 378.179 730.566 379.972C730.566 381.554 730.188 383.004 729.433 384.322C728.677 385.623 727.561 386.687 726.084 387.513C724.607 388.339 722.771 388.831 720.573 388.989L718.464 390.65ZM718.174 408H706.599L709.578 402.753H718.174C719.668 402.753 720.916 402.507 721.918 402.015C722.92 401.505 723.667 400.811 724.159 399.932C724.669 399.035 724.924 397.989 724.924 396.794C724.924 395.546 724.704 394.465 724.265 393.551C723.825 392.619 723.131 391.907 722.182 391.415C721.232 390.905 719.993 390.65 718.464 390.65H711.028L711.081 385.825H720.758L722.261 387.645C724.37 387.715 726.102 388.181 727.455 389.042C728.826 389.903 729.846 391.02 730.514 392.391C731.182 393.762 731.516 395.238 731.516 396.82C731.516 399.264 730.979 401.312 729.907 402.964C728.853 404.616 727.332 405.873 725.346 406.734C723.359 407.578 720.969 408 718.174 408ZM743.935 384.902V408H737.58V379.471H743.645L743.935 384.902ZM752.662 379.286L752.609 385.192C752.223 385.122 751.801 385.069 751.344 385.034C750.904 384.999 750.465 384.981 750.025 384.981C748.936 384.981 747.978 385.14 747.151 385.456C746.325 385.755 745.631 386.194 745.068 386.774C744.523 387.337 744.102 388.022 743.803 388.831C743.504 389.64 743.328 390.545 743.275 391.547L741.825 391.652C741.825 389.859 742.001 388.198 742.353 386.669C742.704 385.14 743.231 383.795 743.935 382.635C744.655 381.475 745.552 380.569 746.624 379.919C747.714 379.269 748.971 378.943 750.395 378.943C750.781 378.943 751.194 378.979 751.634 379.049C752.091 379.119 752.434 379.198 752.662 379.286ZM754.745 394.052V393.445C754.745 391.389 755.044 389.481 755.642 387.724C756.239 385.948 757.101 384.41 758.226 383.109C759.368 381.791 760.757 380.771 762.392 380.051C764.044 379.312 765.907 378.943 767.981 378.943C770.073 378.943 771.937 379.312 773.571 380.051C775.224 380.771 776.621 381.791 777.764 383.109C778.906 384.41 779.776 385.948 780.374 387.724C780.972 389.481 781.271 391.389 781.271 393.445V394.052C781.271 396.108 780.972 398.016 780.374 399.773C779.776 401.531 778.906 403.069 777.764 404.388C776.621 405.688 775.232 406.708 773.598 407.446C771.963 408.167 770.108 408.527 768.034 408.527C765.942 408.527 764.07 408.167 762.418 407.446C760.783 406.708 759.395 405.688 758.252 404.388C757.109 403.069 756.239 401.531 755.642 399.773C755.044 398.016 754.745 396.108 754.745 394.052ZM761.1 393.445V394.052C761.1 395.335 761.231 396.548 761.495 397.69C761.759 398.833 762.172 399.835 762.734 400.696C763.297 401.558 764.018 402.234 764.896 402.727C765.775 403.219 766.821 403.465 768.034 403.465C769.212 403.465 770.231 403.219 771.093 402.727C771.972 402.234 772.692 401.558 773.255 400.696C773.817 399.835 774.23 398.833 774.494 397.69C774.775 396.548 774.916 395.335 774.916 394.052V393.445C774.916 392.18 774.775 390.984 774.494 389.859C774.23 388.717 773.809 387.706 773.229 386.827C772.666 385.948 771.945 385.263 771.066 384.771C770.205 384.261 769.177 384.006 767.981 384.006C766.786 384.006 765.749 384.261 764.87 384.771C764.009 385.263 763.297 385.948 762.734 386.827C762.172 387.706 761.759 388.717 761.495 389.859C761.231 390.984 761.1 392.18 761.1 393.445ZM794.349 401.672L800.94 379.471H805.001L803.894 386.115L797.249 408H793.61L794.349 401.672ZM790.473 379.471L795.614 401.777L796.036 408H791.976L784.25 379.471H790.473ZM811.171 401.514L816.154 379.471H822.351L814.651 408H810.591L811.171 401.514ZM805.687 379.471L812.199 401.408L813.017 408H809.378L802.654 386.089L801.547 379.471H805.687ZM842.68 400.274C842.68 399.642 842.521 399.07 842.205 398.561C841.889 398.033 841.282 397.559 840.386 397.137C839.507 396.715 838.206 396.328 836.483 395.977C834.972 395.643 833.583 395.247 832.317 394.79C831.069 394.315 829.997 393.744 829.101 393.076C828.204 392.408 827.51 391.617 827.018 390.703C826.525 389.789 826.279 388.734 826.279 387.539C826.279 386.379 826.534 385.28 827.044 384.243C827.554 383.206 828.283 382.292 829.232 381.501C830.182 380.71 831.333 380.086 832.687 379.629C834.058 379.172 835.587 378.943 837.274 378.943C839.665 378.943 841.713 379.348 843.418 380.156C845.141 380.947 846.459 382.028 847.373 383.399C848.287 384.753 848.744 386.282 848.744 387.987H842.39C842.39 387.231 842.196 386.528 841.81 385.878C841.44 385.21 840.878 384.674 840.122 384.27C839.366 383.848 838.417 383.637 837.274 383.637C836.185 383.637 835.279 383.812 834.559 384.164C833.855 384.498 833.328 384.938 832.977 385.482C832.643 386.027 832.476 386.625 832.476 387.275C832.476 387.75 832.563 388.181 832.739 388.567C832.933 388.937 833.249 389.279 833.688 389.596C834.128 389.895 834.726 390.176 835.481 390.439C836.255 390.703 837.222 390.958 838.382 391.204C840.562 391.661 842.434 392.25 843.998 392.971C845.58 393.674 846.793 394.588 847.637 395.713C848.48 396.82 848.902 398.227 848.902 399.932C848.902 401.197 848.63 402.357 848.085 403.412C847.558 404.449 846.784 405.354 845.765 406.128C844.745 406.884 843.523 407.473 842.1 407.895C840.693 408.316 839.111 408.527 837.354 408.527C834.77 408.527 832.581 408.07 830.788 407.156C828.995 406.225 827.633 405.038 826.701 403.597C825.787 402.138 825.33 400.626 825.33 399.062H831.474C831.544 400.239 831.869 401.18 832.449 401.883C833.047 402.568 833.785 403.069 834.664 403.386C835.561 403.685 836.483 403.834 837.433 403.834C838.575 403.834 839.533 403.685 840.307 403.386C841.08 403.069 841.669 402.647 842.073 402.12C842.478 401.575 842.68 400.96 842.68 400.274ZM867.043 408.527C864.934 408.527 863.026 408.185 861.321 407.499C859.634 406.796 858.192 405.82 856.997 404.572C855.819 403.324 854.914 401.856 854.281 400.169C853.648 398.481 853.332 396.662 853.332 394.711V393.656C853.332 391.424 853.657 389.402 854.308 387.592C854.958 385.781 855.863 384.234 857.023 382.951C858.184 381.65 859.555 380.657 861.137 379.972C862.719 379.286 864.433 378.943 866.278 378.943C868.317 378.943 870.102 379.286 871.631 379.972C873.16 380.657 874.426 381.624 875.428 382.872C876.447 384.103 877.203 385.57 877.695 387.275C878.205 388.98 878.46 390.861 878.46 392.918V395.634H856.417V391.072H872.185V390.571C872.149 389.429 871.921 388.356 871.499 387.354C871.095 386.353 870.471 385.544 869.627 384.929C868.783 384.313 867.658 384.006 866.252 384.006C865.197 384.006 864.257 384.234 863.431 384.691C862.622 385.131 861.945 385.772 861.4 386.616C860.855 387.46 860.434 388.479 860.135 389.675C859.854 390.853 859.713 392.18 859.713 393.656V394.711C859.713 395.959 859.88 397.119 860.214 398.191C860.565 399.246 861.075 400.169 861.743 400.96C862.411 401.751 863.22 402.375 864.169 402.832C865.118 403.271 866.199 403.491 867.412 403.491C868.941 403.491 870.304 403.184 871.499 402.568C872.694 401.953 873.731 401.083 874.61 399.958L877.959 403.201C877.344 404.098 876.544 404.959 875.56 405.785C874.575 406.594 873.371 407.253 871.947 407.763C870.541 408.272 868.906 408.527 867.043 408.527ZM889.798 384.902V408H883.443V379.471H889.508L889.798 384.902ZM898.525 379.286L898.473 385.192C898.086 385.122 897.664 385.069 897.207 385.034C896.768 384.999 896.328 384.981 895.889 384.981C894.799 384.981 893.841 385.14 893.015 385.456C892.188 385.755 891.494 386.194 890.932 386.774C890.387 387.337 889.965 388.022 889.666 388.831C889.367 389.64 889.191 390.545 889.139 391.547L887.688 391.652C887.688 389.859 887.864 388.198 888.216 386.669C888.567 385.14 889.095 383.795 889.798 382.635C890.519 381.475 891.415 380.569 892.487 379.919C893.577 379.269 894.834 378.943 896.258 378.943C896.645 378.943 897.058 378.979 897.497 379.049C897.954 379.119 898.297 379.198 898.525 379.286Z" fill="white"/>
<path d="M487.156 472.766C487.156 472.467 487.109 472.203 487.015 471.975C486.927 471.74 486.769 471.529 486.541 471.342C486.318 471.154 486.007 470.976 485.609 470.806C485.216 470.636 484.718 470.463 484.115 470.287C483.482 470.1 482.911 469.892 482.401 469.663C481.891 469.429 481.455 469.162 481.091 468.863C480.728 468.564 480.45 468.222 480.256 467.835C480.063 467.448 479.966 467.006 479.966 466.508C479.966 466.01 480.069 465.55 480.274 465.128C480.479 464.706 480.772 464.34 481.153 464.029C481.54 463.713 482 463.467 482.533 463.291C483.066 463.115 483.661 463.027 484.317 463.027C485.278 463.027 486.092 463.212 486.76 463.581C487.434 463.944 487.947 464.422 488.298 465.014C488.65 465.6 488.826 466.227 488.826 466.895H487.138C487.138 466.414 487.036 465.989 486.831 465.62C486.625 465.245 486.315 464.952 485.899 464.741C485.483 464.524 484.956 464.416 484.317 464.416C483.713 464.416 483.215 464.507 482.823 464.688C482.43 464.87 482.137 465.116 481.944 465.427C481.756 465.737 481.663 466.092 481.663 466.49C481.663 466.76 481.718 467.006 481.83 467.229C481.947 467.445 482.125 467.647 482.366 467.835C482.612 468.022 482.922 468.195 483.297 468.354C483.678 468.512 484.132 468.664 484.66 468.811C485.386 469.016 486.013 469.244 486.541 469.496C487.068 469.748 487.501 470.032 487.841 470.349C488.187 470.659 488.442 471.014 488.606 471.412C488.776 471.805 488.861 472.25 488.861 472.748C488.861 473.27 488.755 473.741 488.544 474.163C488.333 474.585 488.032 474.945 487.639 475.244C487.247 475.543 486.775 475.774 486.224 475.938C485.679 476.097 485.07 476.176 484.396 476.176C483.804 476.176 483.221 476.094 482.647 475.93C482.079 475.766 481.56 475.52 481.091 475.191C480.628 474.863 480.256 474.459 479.975 473.979C479.7 473.492 479.562 472.93 479.562 472.291H481.25C481.25 472.73 481.334 473.108 481.504 473.425C481.674 473.735 481.906 473.993 482.199 474.198C482.498 474.403 482.834 474.556 483.209 474.655C483.59 474.749 483.986 474.796 484.396 474.796C484.988 474.796 485.489 474.714 485.899 474.55C486.309 474.386 486.62 474.151 486.831 473.847C487.047 473.542 487.156 473.182 487.156 472.766ZM506.635 469.197V470.006C506.635 470.967 506.515 471.828 506.275 472.59C506.035 473.352 505.689 473.999 505.238 474.532C504.787 475.065 504.245 475.473 503.612 475.754C502.985 476.035 502.282 476.176 501.503 476.176C500.747 476.176 500.052 476.035 499.42 475.754C498.793 475.473 498.248 475.065 497.785 474.532C497.328 473.999 496.973 473.352 496.721 472.59C496.469 471.828 496.344 470.967 496.344 470.006V469.197C496.344 468.236 496.467 467.378 496.713 466.622C496.965 465.86 497.319 465.213 497.776 464.68C498.233 464.141 498.775 463.73 499.402 463.449C500.035 463.168 500.729 463.027 501.485 463.027C502.264 463.027 502.968 463.168 503.594 463.449C504.227 463.73 504.769 464.141 505.22 464.68C505.677 465.213 506.026 465.86 506.266 466.622C506.512 467.378 506.635 468.236 506.635 469.197ZM504.957 470.006V469.18C504.957 468.418 504.878 467.744 504.719 467.158C504.567 466.572 504.342 466.08 504.043 465.682C503.744 465.283 503.378 464.981 502.944 464.776C502.516 464.571 502.03 464.469 501.485 464.469C500.958 464.469 500.48 464.571 500.052 464.776C499.631 464.981 499.267 465.283 498.963 465.682C498.664 466.08 498.432 466.572 498.268 467.158C498.104 467.744 498.022 468.418 498.022 469.18V470.006C498.022 470.773 498.104 471.453 498.268 472.045C498.432 472.631 498.667 473.126 498.971 473.53C499.282 473.929 499.648 474.23 500.07 474.436C500.498 474.641 500.975 474.743 501.503 474.743C502.053 474.743 502.543 474.641 502.97 474.436C503.398 474.23 503.759 473.929 504.052 473.53C504.35 473.126 504.576 472.631 504.728 472.045C504.881 471.453 504.957 470.773 504.957 470.006ZM525.749 463.203L529.072 469.628L532.403 463.203H534.327L529.915 471.219V476H528.219V471.219L523.807 463.203H525.749ZM551.32 469.197V470.006C551.32 470.967 551.2 471.828 550.959 472.59C550.719 473.352 550.373 473.999 549.922 474.532C549.471 475.065 548.929 475.473 548.296 475.754C547.669 476.035 546.966 476.176 546.187 476.176C545.431 476.176 544.737 476.035 544.104 475.754C543.477 475.473 542.932 475.065 542.469 474.532C542.012 473.999 541.658 473.352 541.406 472.59C541.154 471.828 541.028 470.967 541.028 470.006V469.197C541.028 468.236 541.151 467.378 541.397 466.622C541.649 465.86 542.003 465.213 542.46 464.68C542.917 464.141 543.459 463.73 544.086 463.449C544.719 463.168 545.414 463.027 546.169 463.027C546.949 463.027 547.652 463.168 548.279 463.449C548.912 463.73 549.454 464.141 549.905 464.68C550.362 465.213 550.71 465.86 550.951 466.622C551.197 467.378 551.32 468.236 551.32 469.197ZM549.641 470.006V469.18C549.641 468.418 549.562 467.744 549.404 467.158C549.251 466.572 549.026 466.08 548.727 465.682C548.428 465.283 548.062 464.981 547.628 464.776C547.201 464.571 546.714 464.469 546.169 464.469C545.642 464.469 545.164 464.571 544.737 464.776C544.315 464.981 543.952 465.283 543.647 465.682C543.348 466.08 543.117 466.572 542.953 467.158C542.789 467.744 542.706 468.418 542.706 469.18V470.006C542.706 470.773 542.789 471.453 542.953 472.045C543.117 472.631 543.351 473.126 543.656 473.53C543.966 473.929 544.332 474.23 544.754 474.436C545.182 474.641 545.66 474.743 546.187 474.743C546.738 474.743 547.227 474.641 547.655 474.436C548.082 474.23 548.443 473.929 548.736 473.53C549.035 473.126 549.26 472.631 549.413 472.045C549.565 471.453 549.641 470.773 549.641 470.006ZM566.941 463.203H568.629V471.86C568.629 472.821 568.415 473.621 567.987 474.26C567.559 474.898 566.991 475.379 566.282 475.701C565.579 476.018 564.814 476.176 563.988 476.176C563.121 476.176 562.336 476.018 561.633 475.701C560.935 475.379 560.382 474.898 559.971 474.26C559.567 473.621 559.365 472.821 559.365 471.86V463.203H561.044V471.86C561.044 472.528 561.167 473.079 561.413 473.513C561.659 473.946 562.002 474.269 562.441 474.479C562.886 474.69 563.402 474.796 563.988 474.796C564.58 474.796 565.095 474.69 565.535 474.479C565.98 474.269 566.326 473.946 566.572 473.513C566.818 473.079 566.941 472.528 566.941 471.86V463.203ZM595.002 471.931H596.69C596.602 472.739 596.37 473.463 595.995 474.102C595.62 474.74 595.09 475.247 594.404 475.622C593.719 475.991 592.863 476.176 591.838 476.176C591.088 476.176 590.405 476.035 589.79 475.754C589.181 475.473 588.656 475.074 588.217 474.559C587.778 474.037 587.438 473.413 587.197 472.687C586.963 471.954 586.846 471.14 586.846 470.243V468.969C586.846 468.072 586.963 467.261 587.197 466.534C587.438 465.802 587.78 465.175 588.226 464.653C588.677 464.132 589.219 463.73 589.852 463.449C590.485 463.168 591.196 463.027 591.987 463.027C592.954 463.027 593.772 463.209 594.44 463.572C595.108 463.936 595.626 464.439 595.995 465.084C596.37 465.723 596.602 466.464 596.69 467.308H595.002C594.92 466.71 594.768 466.197 594.545 465.77C594.322 465.336 594.006 465.002 593.596 464.768C593.186 464.533 592.65 464.416 591.987 464.416C591.419 464.416 590.918 464.524 590.485 464.741C590.057 464.958 589.696 465.266 589.404 465.664C589.116 466.062 588.9 466.54 588.753 467.097C588.607 467.653 588.533 468.271 588.533 468.951V470.243C588.533 470.87 588.598 471.459 588.727 472.01C588.862 472.561 589.064 473.044 589.333 473.46C589.603 473.876 589.945 474.204 590.362 474.444C590.778 474.679 591.27 474.796 591.838 474.796C592.559 474.796 593.133 474.682 593.561 474.453C593.988 474.225 594.311 473.896 594.528 473.469C594.75 473.041 594.908 472.528 595.002 471.931ZM609.498 464.337L605.262 476H603.531L608.409 463.203H609.525L609.498 464.337ZM613.049 476L608.804 464.337L608.778 463.203H609.894L614.789 476H613.049ZM612.83 471.263V472.651H605.64V471.263H612.83ZM632.107 463.203V476H630.402L623.96 466.13V476H622.263V463.203H623.96L630.428 473.1V463.203H632.107ZM660.555 469.628V474.312C660.397 474.547 660.145 474.811 659.799 475.104C659.453 475.391 658.976 475.643 658.366 475.859C657.763 476.07 656.984 476.176 656.028 476.176C655.249 476.176 654.531 476.041 653.875 475.771C653.225 475.496 652.659 475.098 652.179 474.576C651.704 474.049 651.335 473.41 651.071 472.66C650.814 471.904 650.685 471.049 650.685 470.094V469.101C650.685 468.146 650.796 467.293 651.019 466.543C651.247 465.793 651.581 465.157 652.021 464.636C652.46 464.108 652.999 463.71 653.638 463.44C654.276 463.165 655.009 463.027 655.835 463.027C656.814 463.027 657.631 463.197 658.287 463.537C658.949 463.871 659.465 464.334 659.834 464.926C660.209 465.518 660.449 466.191 660.555 466.947H658.859C658.782 466.484 658.63 466.062 658.401 465.682C658.179 465.301 657.859 464.996 657.443 464.768C657.027 464.533 656.491 464.416 655.835 464.416C655.243 464.416 654.731 464.524 654.297 464.741C653.863 464.958 653.506 465.269 653.225 465.673C652.943 466.077 652.733 466.566 652.592 467.141C652.457 467.715 652.39 468.362 652.39 469.083V470.094C652.39 470.832 652.475 471.491 652.645 472.071C652.82 472.651 653.069 473.146 653.392 473.557C653.714 473.961 654.098 474.269 654.543 474.479C654.994 474.69 655.492 474.796 656.037 474.796C656.641 474.796 657.13 474.746 657.505 474.646C657.88 474.541 658.173 474.418 658.384 474.277C658.595 474.131 658.756 473.993 658.867 473.864V470.999H655.905V469.628H660.555ZM677.257 474.62V476H670.481V474.62H677.257ZM670.824 463.203V476H669.127V463.203H670.824ZM676.361 468.705V470.085H670.481V468.705H676.361ZM677.169 463.203V464.592H670.481V463.203H677.169ZM690.022 463.203V476H688.352V463.203H690.022ZM694.135 463.203V464.592H684.248V463.203H694.135ZM716.229 470.015H712.985L712.968 468.652H715.912C716.399 468.652 716.823 468.57 717.187 468.406C717.55 468.242 717.831 468.008 718.03 467.703C718.235 467.393 718.338 467.023 718.338 466.596C718.338 466.127 718.247 465.746 718.066 465.453C717.89 465.154 717.617 464.938 717.248 464.803C716.885 464.662 716.422 464.592 715.859 464.592H713.363V476H711.667V463.203H715.859C716.516 463.203 717.102 463.271 717.617 463.405C718.133 463.534 718.569 463.739 718.927 464.021C719.29 464.296 719.566 464.647 719.753 465.075C719.941 465.503 720.034 466.016 720.034 466.613C720.034 467.141 719.9 467.618 719.63 468.046C719.36 468.468 718.985 468.813 718.505 469.083C718.03 469.353 717.474 469.525 716.835 469.602L716.229 470.015ZM716.15 476H712.318L713.276 474.62H716.15C716.689 474.62 717.146 474.526 717.521 474.339C717.901 474.151 718.192 473.888 718.391 473.548C718.59 473.202 718.69 472.795 718.69 472.326C718.69 471.852 718.605 471.441 718.435 471.096C718.265 470.75 717.998 470.483 717.635 470.296C717.272 470.108 716.803 470.015 716.229 470.015H713.812L713.829 468.652H717.134L717.494 469.145C718.109 469.197 718.631 469.373 719.059 469.672C719.486 469.965 719.812 470.34 720.034 470.797C720.263 471.254 720.377 471.758 720.377 472.309C720.377 473.105 720.201 473.779 719.85 474.33C719.504 474.875 719.015 475.291 718.382 475.578C717.749 475.859 717.005 476 716.15 476ZM733.379 464.337L729.143 476H727.411L732.289 463.203H733.406L733.379 464.337ZM736.93 476L732.685 464.337L732.659 463.203H733.775L738.67 476H736.93ZM736.71 471.263V472.651H729.521V471.263H736.71ZM753.764 471.931H755.452C755.364 472.739 755.132 473.463 754.757 474.102C754.382 474.74 753.852 475.247 753.167 475.622C752.481 475.991 751.626 476.176 750.6 476.176C749.85 476.176 749.168 476.035 748.552 475.754C747.943 475.473 747.419 475.074 746.979 474.559C746.54 474.037 746.2 473.413 745.96 472.687C745.725 471.954 745.608 471.14 745.608 470.243V468.969C745.608 468.072 745.725 467.261 745.96 466.534C746.2 465.802 746.543 465.175 746.988 464.653C747.439 464.132 747.981 463.73 748.614 463.449C749.247 463.168 749.959 463.027 750.75 463.027C751.716 463.027 752.534 463.209 753.202 463.572C753.87 463.936 754.388 464.439 754.757 465.084C755.132 465.723 755.364 466.464 755.452 467.308H753.764C753.682 466.71 753.53 466.197 753.307 465.77C753.085 465.336 752.768 465.002 752.358 464.768C751.948 464.533 751.412 464.416 750.75 464.416C750.181 464.416 749.68 464.524 749.247 464.741C748.819 464.958 748.459 465.266 748.166 465.664C747.879 466.062 747.662 466.54 747.515 467.097C747.369 467.653 747.296 468.271 747.296 468.951V470.243C747.296 470.87 747.36 471.459 747.489 472.01C747.624 472.561 747.826 473.044 748.095 473.46C748.365 473.876 748.708 474.204 749.124 474.444C749.54 474.679 750.032 474.796 750.6 474.796C751.321 474.796 751.895 474.682 752.323 474.453C752.751 474.225 753.073 473.896 753.29 473.469C753.512 473.041 753.671 472.528 753.764 471.931ZM765.22 463.203V476H763.523V463.203H765.22ZM772.945 463.203L767.628 469.171L764.639 472.273L764.358 470.463L766.608 467.984L770.906 463.203H772.945ZM771.31 476L766.573 469.76L767.584 468.415L773.332 476H771.31ZM795.188 463.203V476H793.518V463.203H795.188ZM799.301 463.203V464.592H789.413V463.203H799.301ZM816.566 469.197V470.006C816.566 470.967 816.446 471.828 816.206 472.59C815.965 473.352 815.62 473.999 815.168 474.532C814.717 475.065 814.175 475.473 813.542 475.754C812.916 476.035 812.212 476.176 811.433 476.176C810.677 476.176 809.983 476.035 809.35 475.754C808.723 475.473 808.178 475.065 807.715 474.532C807.258 473.999 806.904 473.352 806.652 472.59C806.4 471.828 806.274 470.967 806.274 470.006V469.197C806.274 468.236 806.397 467.378 806.643 466.622C806.895 465.86 807.25 465.213 807.707 464.68C808.164 464.141 808.706 463.73 809.333 463.449C809.965 463.168 810.66 463.027 811.416 463.027C812.195 463.027 812.898 463.168 813.525 463.449C814.158 463.73 814.7 464.141 815.151 464.68C815.608 465.213 815.957 465.86 816.197 466.622C816.443 467.378 816.566 468.236 816.566 469.197ZM814.887 470.006V469.18C814.887 468.418 814.808 467.744 814.65 467.158C814.498 466.572 814.272 466.08 813.973 465.682C813.674 465.283 813.308 464.981 812.875 464.776C812.447 464.571 811.96 464.469 811.416 464.469C810.888 464.469 810.411 464.571 809.983 464.776C809.561 464.981 809.198 465.283 808.893 465.682C808.594 466.08 808.363 466.572 808.199 467.158C808.035 467.744 807.953 468.418 807.953 469.18V470.006C807.953 470.773 808.035 471.453 808.199 472.045C808.363 472.631 808.597 473.126 808.902 473.53C809.212 473.929 809.579 474.23 810 474.436C810.428 474.641 810.906 474.743 811.433 474.743C811.984 474.743 812.473 474.641 812.901 474.436C813.329 474.23 813.689 473.929 813.982 473.53C814.281 473.126 814.506 472.631 814.659 472.045C814.811 471.453 814.887 470.773 814.887 470.006ZM839.811 470.981H836.392V469.602H839.811C840.473 469.602 841.009 469.496 841.419 469.285C841.829 469.074 842.128 468.781 842.315 468.406C842.509 468.031 842.605 467.604 842.605 467.123C842.605 466.684 842.509 466.271 842.315 465.884C842.128 465.497 841.829 465.187 841.419 464.952C841.009 464.712 840.473 464.592 839.811 464.592H836.787V476H835.091V463.203H839.811C840.777 463.203 841.595 463.37 842.263 463.704C842.931 464.038 843.438 464.501 843.783 465.093C844.129 465.679 844.302 466.35 844.302 467.105C844.302 467.926 844.129 468.626 843.783 469.206C843.438 469.786 842.931 470.229 842.263 470.533C841.595 470.832 840.777 470.981 839.811 470.981ZM859.967 474.62V476H853.569V474.62H859.967ZM853.903 463.203V476H852.206V463.203H853.903ZM872.583 464.337L868.346 476H866.615L871.493 463.203H872.609L872.583 464.337ZM876.133 476L871.888 464.337L871.862 463.203H872.978L877.874 476H876.133ZM875.914 471.263V472.651H868.724V471.263H875.914ZM885.11 463.203L888.432 469.628L891.763 463.203H893.688L889.276 471.219V476H887.58V471.219L883.168 463.203H885.11ZM902.911 463.203V476H901.215V463.203H902.911ZM921.6 463.203V476H919.895L913.452 466.13V476H911.756V463.203H913.452L919.921 473.1V463.203H921.6ZM939.823 469.628V474.312C939.665 474.547 939.413 474.811 939.067 475.104C938.721 475.391 938.244 475.643 937.634 475.859C937.031 476.07 936.251 476.176 935.296 476.176C934.517 476.176 933.799 476.041 933.143 475.771C932.493 475.496 931.927 475.098 931.447 474.576C930.972 474.049 930.603 473.41 930.339 472.66C930.082 471.904 929.953 471.049 929.953 470.094V469.101C929.953 468.146 930.064 467.293 930.287 466.543C930.515 465.793 930.849 465.157 931.289 464.636C931.728 464.108 932.267 463.71 932.906 463.44C933.544 463.165 934.277 463.027 935.103 463.027C936.082 463.027 936.899 463.197 937.555 463.537C938.217 463.871 938.733 464.334 939.102 464.926C939.477 465.518 939.717 466.191 939.823 466.947H938.126C938.05 466.484 937.898 466.062 937.669 465.682C937.447 465.301 937.127 464.996 936.711 464.768C936.295 464.533 935.759 464.416 935.103 464.416C934.511 464.416 933.999 464.524 933.565 464.741C933.131 464.958 932.774 465.269 932.493 465.673C932.211 466.077 932 466.566 931.86 467.141C931.725 467.715 931.658 468.362 931.658 469.083V470.094C931.658 470.832 931.743 471.491 931.913 472.071C932.088 472.651 932.337 473.146 932.66 473.557C932.982 473.961 933.366 474.269 933.811 474.479C934.262 474.69 934.76 474.796 935.305 474.796C935.909 474.796 936.398 474.746 936.773 474.646C937.148 474.541 937.441 474.418 937.652 474.277C937.863 474.131 938.024 473.993 938.135 473.864V470.999H935.173V469.628H939.823Z" fill="#919191"/>
</svg>
