<svg width="1420" height="888" viewBox="0 0 1420 888" fill="none" xmlns="http://www.w3.org/2000/svg">
<rect width="1420" height="888" fill="#1A1A1A"/>
<path d="M574.789 369.609V408H568.171V369.609H574.789ZM590.451 386.405V391.652H573.102V386.405H590.451ZM592.64 369.609V374.883H573.102V369.609H592.64ZM613.865 401.276V379.471H620.246V408H614.234L613.865 401.276ZM614.762 395.344L616.897 395.291C616.897 397.207 616.687 398.974 616.265 400.591C615.843 402.19 615.192 403.588 614.313 404.783C613.435 405.961 612.31 406.884 610.938 407.552C609.567 408.202 607.924 408.527 606.008 408.527C604.619 408.527 603.345 408.325 602.185 407.921C601.024 407.517 600.022 406.893 599.179 406.049C598.353 405.205 597.711 404.106 597.254 402.753C596.797 401.399 596.568 399.782 596.568 397.901V379.471H602.923V397.954C602.923 398.991 603.046 399.861 603.292 400.564C603.538 401.25 603.872 401.804 604.294 402.226C604.716 402.647 605.208 402.946 605.771 403.122C606.333 403.298 606.931 403.386 607.563 403.386C609.374 403.386 610.798 403.034 611.835 402.331C612.89 401.61 613.637 400.644 614.076 399.431C614.533 398.218 614.762 396.855 614.762 395.344ZM633.562 367.5V408H627.181V367.5H633.562ZM647.325 367.5V408H640.944V367.5H647.325ZM679.071 397.849L687.403 369.609H690.014L687.904 377.994L679.019 408H676.514L679.071 397.849ZM669.395 369.609L676.408 397.585L678.518 408H675.907L666.072 369.609H669.395ZM701.246 397.585L708.154 369.609H711.477L701.668 408H699.058L701.246 397.585ZM690.304 369.609L698.53 397.849L701.062 408H698.557L689.855 377.994L687.72 369.609H690.304ZM720.521 379.471V408H717.383V379.471H720.521ZM716.829 371.218C716.829 370.62 717.014 370.119 717.383 369.715C717.77 369.293 718.297 369.082 718.965 369.082C719.633 369.082 720.16 369.293 720.547 369.715C720.951 370.119 721.153 370.62 721.153 371.218C721.153 371.798 720.951 372.299 720.547 372.721C720.16 373.125 719.633 373.327 718.965 373.327C718.297 373.327 717.77 373.125 717.383 372.721C717.014 372.299 716.829 371.798 716.829 371.218ZM732.28 385.562V408H729.143V379.471H732.148L732.28 385.562ZM731.568 391.969L730.171 391.178C730.276 389.49 730.619 387.908 731.199 386.432C731.779 384.955 732.562 383.654 733.546 382.529C734.548 381.404 735.717 380.525 737.053 379.893C738.406 379.26 739.9 378.943 741.535 378.943C742.959 378.943 744.233 379.137 745.358 379.523C746.483 379.91 747.441 380.525 748.232 381.369C749.023 382.213 749.621 383.294 750.025 384.612C750.447 385.931 750.658 387.539 750.658 389.438V408H747.494V389.411C747.494 387.442 747.222 385.904 746.677 384.797C746.132 383.672 745.358 382.872 744.356 382.397C743.354 381.923 742.168 381.686 740.797 381.686C739.285 381.686 737.958 382.02 736.815 382.688C735.69 383.338 734.741 384.19 733.968 385.245C733.212 386.282 732.632 387.398 732.228 388.594C731.823 389.771 731.604 390.896 731.568 391.969ZM777.368 402.463V367.5H780.532V408H777.579L777.368 402.463ZM757.566 394.025V393.472C757.566 391.257 757.821 389.262 758.331 387.486C758.841 385.693 759.57 384.164 760.52 382.898C761.486 381.615 762.646 380.64 764 379.972C765.354 379.286 766.883 378.943 768.588 378.943C770.258 378.943 771.734 379.216 773.018 379.761C774.301 380.306 775.399 381.088 776.313 382.107C777.245 383.127 777.992 384.34 778.555 385.746C779.135 387.152 779.557 388.717 779.82 390.439V397.479C779.609 399.097 779.223 400.582 778.66 401.936C778.098 403.271 777.351 404.44 776.419 405.442C775.487 406.427 774.362 407.191 773.044 407.736C771.743 408.264 770.24 408.527 768.535 408.527C766.848 408.527 765.327 408.176 763.974 407.473C762.62 406.77 761.469 405.776 760.52 404.493C759.57 403.192 758.841 401.654 758.331 399.879C757.821 398.104 757.566 396.152 757.566 394.025ZM760.73 393.472V394.025C760.73 395.695 760.897 397.242 761.231 398.666C761.565 400.09 762.075 401.329 762.761 402.384C763.446 403.438 764.316 404.265 765.371 404.862C766.426 405.46 767.674 405.759 769.115 405.759C770.926 405.759 772.446 405.416 773.677 404.73C774.907 404.027 775.892 403.104 776.63 401.962C777.368 400.802 777.904 399.536 778.238 398.165V389.965C778.027 389.033 777.72 388.084 777.315 387.117C776.911 386.15 776.357 385.263 775.654 384.454C774.969 383.628 774.09 382.969 773.018 382.477C771.963 381.967 770.68 381.712 769.168 381.712C767.709 381.712 766.452 382.011 765.397 382.608C764.343 383.206 763.464 384.041 762.761 385.113C762.075 386.168 761.565 387.407 761.231 388.831C760.897 390.255 760.73 391.802 760.73 393.472ZM787.098 394.184V393.313C787.098 391.239 787.396 389.323 787.994 387.565C788.592 385.808 789.444 384.287 790.552 383.004C791.677 381.721 793.021 380.728 794.586 380.024C796.15 379.304 797.891 378.943 799.807 378.943C801.74 378.943 803.489 379.304 805.054 380.024C806.618 380.728 807.963 381.721 809.088 383.004C810.213 384.287 811.074 385.808 811.672 387.565C812.27 389.323 812.568 391.239 812.568 393.313V394.184C812.568 396.258 812.27 398.174 811.672 399.932C811.074 401.672 810.213 403.184 809.088 404.467C807.98 405.75 806.645 406.752 805.08 407.473C803.516 408.176 801.775 408.527 799.859 408.527C797.926 408.527 796.177 408.176 794.612 407.473C793.048 406.752 791.703 405.75 790.578 404.467C789.453 403.184 788.592 401.672 787.994 399.932C787.396 398.174 787.098 396.258 787.098 394.184ZM790.235 393.313V394.184C790.235 395.748 790.446 397.233 790.868 398.64C791.29 400.028 791.905 401.268 792.714 402.357C793.522 403.43 794.524 404.273 795.72 404.889C796.915 405.504 798.295 405.812 799.859 405.812C801.406 405.812 802.769 405.504 803.946 404.889C805.142 404.273 806.144 403.43 806.952 402.357C807.761 401.268 808.367 400.028 808.771 398.64C809.193 397.233 809.404 395.748 809.404 394.184V393.313C809.404 391.767 809.193 390.299 808.771 388.91C808.367 387.521 807.752 386.282 806.926 385.192C806.117 384.103 805.115 383.241 803.92 382.608C802.725 381.976 801.354 381.659 799.807 381.659C798.26 381.659 796.889 381.976 795.693 382.608C794.516 383.241 793.514 384.103 792.688 385.192C791.879 386.282 791.264 387.521 790.842 388.91C790.438 390.299 790.235 391.767 790.235 393.313ZM827.018 401.329L833.899 379.471H836.114L834.796 385.351L827.598 408H825.383L827.018 401.329ZM819.872 379.471L825.91 401.461L827.202 408H824.908L816.629 379.471H819.872ZM844.684 401.382L850.563 379.471H853.807L845.527 408H843.26L844.684 401.382ZM836.562 379.471L843.339 401.145L845.053 408H842.838L835.481 385.324L834.242 379.471H836.562Z" fill="white"/>
<path d="M625.697 463.203H629.933C630.894 463.203 631.706 463.35 632.368 463.643C633.036 463.936 633.543 464.369 633.888 464.943C634.24 465.512 634.416 466.212 634.416 467.044C634.416 467.63 634.296 468.166 634.055 468.652C633.821 469.133 633.481 469.543 633.036 469.883C632.596 470.217 632.069 470.466 631.454 470.63L630.979 470.814H626.998L626.98 469.435H629.986C630.596 469.435 631.102 469.329 631.507 469.118C631.911 468.901 632.216 468.611 632.421 468.248C632.626 467.885 632.728 467.483 632.728 467.044C632.728 466.552 632.632 466.121 632.438 465.752C632.245 465.383 631.94 465.099 631.524 464.899C631.114 464.694 630.584 464.592 629.933 464.592H627.393V476H625.697V463.203ZM633.177 476L630.065 470.199L631.832 470.19L634.987 475.895V476H633.177ZM650.679 474.62V476H643.902V474.62H650.679ZM644.245 463.203V476H642.549V463.203H644.245ZM649.782 468.705V470.085H643.902V468.705H649.782ZM650.591 463.203V464.592H643.902V463.203H650.591ZM663.444 463.203V476H661.774V463.203H663.444ZM667.557 463.203V464.592H657.669V463.203H667.557ZM675.215 463.203H679.452C680.413 463.203 681.224 463.35 681.886 463.643C682.554 463.936 683.061 464.369 683.407 464.943C683.758 465.512 683.934 466.212 683.934 467.044C683.934 467.63 683.814 468.166 683.574 468.652C683.339 469.133 683 469.543 682.554 469.883C682.115 470.217 681.587 470.466 680.972 470.63L680.498 470.814H676.516L676.499 469.435H679.504C680.114 469.435 680.621 469.329 681.025 469.118C681.429 468.901 681.734 468.611 681.939 468.248C682.144 467.885 682.247 467.483 682.247 467.044C682.247 466.552 682.15 466.121 681.957 465.752C681.763 465.383 681.458 465.099 681.042 464.899C680.632 464.694 680.102 464.592 679.452 464.592H676.912V476H675.215V463.203ZM682.695 476L679.583 470.199L681.35 470.19L684.505 475.895V476H682.695ZM701.92 469.197V470.006C701.92 470.967 701.8 471.828 701.559 472.59C701.319 473.352 700.973 473.999 700.522 474.532C700.071 475.065 699.529 475.473 698.896 475.754C698.269 476.035 697.566 476.176 696.787 476.176C696.031 476.176 695.337 476.035 694.704 475.754C694.077 475.473 693.532 475.065 693.069 474.532C692.612 473.999 692.258 473.352 692.006 472.59C691.754 471.828 691.628 470.967 691.628 470.006V469.197C691.628 468.236 691.751 467.378 691.997 466.622C692.249 465.86 692.603 465.213 693.06 464.68C693.517 464.141 694.059 463.73 694.686 463.449C695.319 463.168 696.013 463.027 696.769 463.027C697.549 463.027 698.252 463.168 698.879 463.449C699.511 463.73 700.053 464.141 700.505 464.68C700.962 465.213 701.31 465.86 701.551 466.622C701.797 467.378 701.92 468.236 701.92 469.197ZM700.241 470.006V469.18C700.241 468.418 700.162 467.744 700.004 467.158C699.851 466.572 699.626 466.08 699.327 465.682C699.028 465.283 698.662 464.981 698.228 464.776C697.801 464.571 697.314 464.469 696.769 464.469C696.242 464.469 695.764 464.571 695.337 464.776C694.915 464.981 694.552 465.283 694.247 465.682C693.948 466.08 693.717 466.572 693.552 467.158C693.388 467.744 693.306 468.418 693.306 469.18V470.006C693.306 470.773 693.388 471.453 693.552 472.045C693.717 472.631 693.951 473.126 694.256 473.53C694.566 473.929 694.932 474.23 695.354 474.436C695.782 474.641 696.26 474.743 696.787 474.743C697.338 474.743 697.827 474.641 698.255 474.436C698.682 474.23 699.043 473.929 699.336 473.53C699.635 473.126 699.86 472.631 700.012 472.045C700.165 471.453 700.241 470.773 700.241 470.006ZM711.916 463.203V476H710.22V463.203H711.916ZM717.277 468.96V470.349H711.547V468.96H717.277ZM718.147 463.203V464.592H711.547V463.203H718.147ZM727.748 463.203V476H726.052V463.203H727.748ZM741.058 463.203V476H739.388V463.203H741.058ZM745.171 463.203V464.592H735.284V463.203H745.171ZM757.699 463.203V476H756.029V463.203H757.699ZM761.812 463.203V464.592H751.925V463.203H761.812ZM777.601 474.62V476H770.824V474.62H777.601ZM771.167 463.203V476H769.471V463.203H771.167ZM776.704 468.705V470.085H770.824V468.705H776.704ZM777.513 463.203V464.592H770.824V463.203H777.513ZM788.924 476H786.252L786.27 474.62H788.924C789.838 474.62 790.6 474.43 791.209 474.049C791.819 473.662 792.276 473.123 792.58 472.432C792.891 471.734 793.046 470.92 793.046 469.988V469.206C793.046 468.474 792.958 467.823 792.782 467.255C792.607 466.681 792.349 466.197 792.009 465.805C791.669 465.406 791.253 465.104 790.761 464.899C790.275 464.694 789.715 464.592 789.082 464.592H786.199V463.203H789.082C789.92 463.203 790.685 463.344 791.376 463.625C792.068 463.9 792.662 464.302 793.16 464.829C793.664 465.351 794.051 465.983 794.321 466.728C794.59 467.466 794.725 468.298 794.725 469.224V469.988C794.725 470.914 794.59 471.749 794.321 472.493C794.051 473.231 793.661 473.861 793.152 474.383C792.648 474.904 792.038 475.306 791.323 475.587C790.615 475.862 789.815 476 788.924 476ZM787.157 463.203V476H785.461V463.203H787.157Z" fill="#919191"/>
</svg>
