<svg width="1420" height="888" viewBox="0 0 1420 888" fill="none" xmlns="http://www.w3.org/2000/svg">
<rect width="1420" height="888" fill="#1A1A1A"/>
<path d="M525.456 371.903L512.167 408H508.792L523.294 369.609H525.641L525.456 371.903ZM537.532 408L524.217 371.903L524.032 369.609H526.379L540.907 408H537.532ZM535.159 394.447V397.242H514.777V394.447H535.159ZM564.4 402.463V367.5H567.564V408H564.611L564.4 402.463ZM544.599 394.025V393.472C544.599 391.257 544.854 389.262 545.363 387.486C545.873 385.693 546.603 384.164 547.552 382.898C548.519 381.615 549.679 380.64 551.032 379.972C552.386 379.286 553.915 378.943 555.62 378.943C557.29 378.943 558.767 379.216 560.05 379.761C561.333 380.306 562.432 381.088 563.346 382.107C564.277 383.127 565.024 384.34 565.587 385.746C566.167 387.152 566.589 388.717 566.853 390.439V397.479C566.642 399.097 566.255 400.582 565.692 401.936C565.13 403.271 564.383 404.44 563.451 405.442C562.52 406.427 561.395 407.191 560.076 407.736C558.775 408.264 557.272 408.527 555.567 408.527C553.88 408.527 552.359 408.176 551.006 407.473C549.652 406.77 548.501 405.776 547.552 404.493C546.603 403.192 545.873 401.654 545.363 399.879C544.854 398.104 544.599 396.152 544.599 394.025ZM547.763 393.472V394.025C547.763 395.695 547.93 397.242 548.264 398.666C548.598 400.09 549.107 401.329 549.793 402.384C550.479 403.438 551.349 404.265 552.403 404.862C553.458 405.46 554.706 405.759 556.147 405.759C557.958 405.759 559.479 405.416 560.709 404.73C561.939 404.027 562.924 403.104 563.662 401.962C564.4 400.802 564.937 399.536 565.271 398.165V389.965C565.06 389.033 564.752 388.084 564.348 387.117C563.943 386.15 563.39 385.263 562.687 384.454C562.001 383.628 561.122 382.969 560.05 382.477C558.995 381.967 557.712 381.712 556.2 381.712C554.741 381.712 553.484 382.011 552.43 382.608C551.375 383.206 550.496 384.041 549.793 385.113C549.107 386.168 548.598 387.407 548.264 388.831C547.93 390.255 547.763 391.802 547.763 393.472ZM594.406 402.463V367.5H597.57V408H594.617L594.406 402.463ZM574.604 394.025V393.472C574.604 391.257 574.859 389.262 575.369 387.486C575.879 385.693 576.608 384.164 577.558 382.898C578.524 381.615 579.685 380.64 581.038 379.972C582.392 379.286 583.921 378.943 585.626 378.943C587.296 378.943 588.772 379.216 590.056 379.761C591.339 380.306 592.438 381.088 593.352 382.107C594.283 383.127 595.03 384.34 595.593 385.746C596.173 387.152 596.595 388.717 596.858 390.439V397.479C596.647 399.097 596.261 400.582 595.698 401.936C595.136 403.271 594.389 404.44 593.457 405.442C592.525 406.427 591.4 407.191 590.082 407.736C588.781 408.264 587.278 408.527 585.573 408.527C583.886 408.527 582.365 408.176 581.012 407.473C579.658 406.77 578.507 405.776 577.558 404.493C576.608 403.192 575.879 401.654 575.369 399.879C574.859 398.104 574.604 396.152 574.604 394.025ZM577.769 393.472V394.025C577.769 395.695 577.936 397.242 578.27 398.666C578.604 400.09 579.113 401.329 579.799 402.384C580.484 403.438 581.354 404.265 582.409 404.862C583.464 405.46 584.712 405.759 586.153 405.759C587.964 405.759 589.484 405.416 590.715 404.73C591.945 404.027 592.93 403.104 593.668 401.962C594.406 400.802 594.942 399.536 595.276 398.165V389.965C595.065 389.033 594.758 388.084 594.354 387.117C593.949 386.15 593.396 385.263 592.692 384.454C592.007 383.628 591.128 382.969 590.056 382.477C589.001 381.967 587.718 381.712 586.206 381.712C584.747 381.712 583.49 382.011 582.436 382.608C581.381 383.206 580.502 384.041 579.799 385.113C579.113 386.168 578.604 387.407 578.27 388.831C577.936 390.255 577.769 391.802 577.769 393.472ZM641.524 398.561C641.524 397.506 641.349 396.565 640.997 395.739C640.646 394.913 640.065 394.175 639.257 393.524C638.466 392.856 637.394 392.241 636.04 391.679C634.704 391.099 633.034 390.527 631.03 389.965C629.114 389.42 627.383 388.822 625.836 388.172C624.289 387.521 622.962 386.774 621.854 385.931C620.765 385.087 619.93 384.103 619.35 382.978C618.77 381.835 618.479 380.508 618.479 378.996C618.479 377.52 618.796 376.175 619.429 374.962C620.062 373.749 620.949 372.703 622.092 371.824C623.252 370.945 624.614 370.269 626.179 369.794C627.761 369.319 629.492 369.082 631.373 369.082C634.062 369.082 636.383 369.592 638.334 370.611C640.303 371.631 641.823 373.011 642.896 374.751C643.985 376.474 644.53 378.407 644.53 380.552H641.287C641.287 378.882 640.892 377.396 640.101 376.096C639.327 374.777 638.202 373.749 636.726 373.011C635.267 372.255 633.482 371.877 631.373 371.877C629.264 371.877 627.488 372.202 626.047 372.853C624.623 373.485 623.542 374.338 622.804 375.41C622.083 376.465 621.723 377.643 621.723 378.943C621.723 379.857 621.898 380.701 622.25 381.475C622.602 382.23 623.173 382.942 623.964 383.61C624.772 384.261 625.836 384.876 627.154 385.456C628.473 386.019 630.099 386.555 632.032 387.064C634.071 387.627 635.882 388.251 637.464 388.937C639.046 389.622 640.382 390.413 641.472 391.31C642.562 392.188 643.388 393.217 643.95 394.395C644.513 395.572 644.794 396.943 644.794 398.508C644.794 400.072 644.46 401.479 643.792 402.727C643.142 403.957 642.219 405.003 641.023 405.864C639.846 406.726 638.448 407.385 636.831 407.842C635.231 408.299 633.482 408.527 631.584 408.527C629.879 408.527 628.183 408.308 626.495 407.868C624.808 407.429 623.261 406.752 621.854 405.838C620.466 404.906 619.35 403.711 618.506 402.252C617.68 400.793 617.267 399.053 617.267 397.031H620.483C620.483 398.648 620.809 400.011 621.459 401.118C622.109 402.226 622.971 403.122 624.043 403.808C625.133 404.493 626.328 404.994 627.629 405.311C628.947 405.609 630.266 405.759 631.584 405.759C633.605 405.759 635.354 405.46 636.831 404.862C638.325 404.265 639.477 403.43 640.285 402.357C641.111 401.268 641.524 400.002 641.524 398.561ZM649.329 394.184V393.313C649.329 391.239 649.628 389.323 650.226 387.565C650.823 385.808 651.676 384.287 652.783 383.004C653.908 381.721 655.253 380.728 656.817 380.024C658.382 379.304 660.122 378.943 662.038 378.943C663.972 378.943 665.721 379.304 667.285 380.024C668.85 380.728 670.194 381.721 671.319 383.004C672.444 384.287 673.306 385.808 673.903 387.565C674.501 389.323 674.8 391.239 674.8 393.313V394.184C674.8 396.258 674.501 398.174 673.903 399.932C673.306 401.672 672.444 403.184 671.319 404.467C670.212 405.75 668.876 406.752 667.312 407.473C665.747 408.176 664.007 408.527 662.091 408.527C660.157 408.527 658.408 408.176 656.844 407.473C655.279 406.752 653.935 405.75 652.81 404.467C651.685 403.184 650.823 401.672 650.226 399.932C649.628 398.174 649.329 396.258 649.329 394.184ZM652.467 393.313V394.184C652.467 395.748 652.678 397.233 653.1 398.64C653.521 400.028 654.137 401.268 654.945 402.357C655.754 403.43 656.756 404.273 657.951 404.889C659.146 405.504 660.526 405.812 662.091 405.812C663.638 405.812 665 405.504 666.178 404.889C667.373 404.273 668.375 403.43 669.184 402.357C669.992 401.268 670.599 400.028 671.003 398.64C671.425 397.233 671.636 395.748 671.636 394.184V393.313C671.636 391.767 671.425 390.299 671.003 388.91C670.599 387.521 669.983 386.282 669.157 385.192C668.349 384.103 667.347 383.241 666.151 382.608C664.956 381.976 663.585 381.659 662.038 381.659C660.491 381.659 659.12 381.976 657.925 382.608C656.747 383.241 655.745 384.103 654.919 385.192C654.11 386.282 653.495 387.521 653.073 388.91C652.669 390.299 652.467 391.767 652.467 393.313ZM684.318 385.377V408H681.154V379.471H684.187L684.318 385.377ZM683.738 391.969L682.209 391.178C682.314 389.49 682.631 387.908 683.158 386.432C683.703 384.955 684.459 383.654 685.426 382.529C686.393 381.404 687.553 380.525 688.906 379.893C690.26 379.26 691.798 378.943 693.521 378.943C694.909 378.943 696.166 379.137 697.291 379.523C698.434 379.893 699.4 380.481 700.191 381.29C701 382.081 701.624 383.118 702.063 384.401C702.503 385.685 702.723 387.223 702.723 389.016V408H699.585V389.121C699.585 387.223 699.286 385.737 698.688 384.665C698.108 383.593 697.291 382.828 696.236 382.371C695.199 381.914 693.995 381.686 692.624 381.686C691.007 381.686 689.636 382.02 688.511 382.688C687.403 383.338 686.498 384.19 685.795 385.245C685.109 386.282 684.6 387.398 684.266 388.594C683.932 389.771 683.756 390.896 683.738 391.969ZM702.696 389.49L700.587 389.543C700.675 388.154 700.991 386.827 701.536 385.562C702.099 384.296 702.863 383.171 703.83 382.187C704.797 381.185 705.948 380.394 707.284 379.813C708.638 379.233 710.158 378.943 711.846 378.943C713.322 378.943 714.641 379.146 715.801 379.55C716.961 379.937 717.937 380.561 718.728 381.422C719.536 382.266 720.151 383.347 720.573 384.665C720.995 385.983 721.206 387.565 721.206 389.411V408H718.042V389.385C718.042 387.363 717.743 385.799 717.146 384.691C716.565 383.566 715.757 382.784 714.72 382.345C713.683 381.905 712.47 381.686 711.081 381.686C709.71 381.703 708.506 381.958 707.469 382.45C706.432 382.925 705.562 383.558 704.858 384.349C704.173 385.122 703.646 385.957 703.276 386.854C702.925 387.75 702.731 388.629 702.696 389.49ZM740.243 408.527C738.38 408.527 736.666 408.185 735.102 407.499C733.555 406.813 732.201 405.847 731.041 404.599C729.898 403.351 729.011 401.874 728.378 400.169C727.763 398.446 727.455 396.565 727.455 394.526V393.393C727.455 391.195 727.78 389.209 728.431 387.434C729.081 385.658 729.978 384.138 731.12 382.872C732.263 381.606 733.563 380.64 735.022 379.972C736.499 379.286 738.046 378.943 739.663 378.943C741.474 378.943 743.082 379.269 744.488 379.919C745.895 380.552 747.072 381.457 748.021 382.635C748.988 383.795 749.718 385.175 750.21 386.774C750.702 388.356 750.948 390.105 750.948 392.021V393.946H729.354V391.257H747.811V390.888C747.775 389.288 747.45 387.794 746.835 386.405C746.237 384.999 745.341 383.856 744.146 382.978C742.95 382.099 741.456 381.659 739.663 381.659C738.327 381.659 737.097 381.94 735.972 382.503C734.864 383.065 733.906 383.874 733.098 384.929C732.307 385.966 731.691 387.205 731.252 388.646C730.83 390.07 730.619 391.652 730.619 393.393V394.526C730.619 396.108 730.848 397.585 731.305 398.956C731.779 400.31 732.447 401.505 733.309 402.542C734.188 403.579 735.225 404.388 736.42 404.968C737.615 405.548 738.934 405.838 740.375 405.838C742.062 405.838 743.557 405.53 744.857 404.915C746.158 404.282 747.327 403.289 748.364 401.936L750.342 403.465C749.727 404.379 748.953 405.223 748.021 405.996C747.107 406.77 746.009 407.385 744.726 407.842C743.442 408.299 741.948 408.527 740.243 408.527ZM781.271 408H773.07L773.123 402.753H781.271C783.644 402.753 785.63 402.234 787.229 401.197C788.847 400.16 790.06 398.675 790.868 396.741C791.694 394.808 792.107 392.505 792.107 389.833V387.75C792.107 385.676 791.87 383.839 791.396 382.239C790.938 380.64 790.253 379.295 789.339 378.205C788.442 377.115 787.335 376.289 786.017 375.727C784.716 375.164 783.213 374.883 781.508 374.883H772.912V369.609H781.508C784.057 369.609 786.386 370.04 788.495 370.901C790.604 371.745 792.424 372.967 793.953 374.566C795.5 376.166 796.687 378.082 797.513 380.314C798.339 382.547 798.752 385.043 798.752 387.803V389.833C798.752 392.593 798.339 395.089 797.513 397.321C796.687 399.554 795.5 401.47 793.953 403.069C792.406 404.651 790.561 405.873 788.416 406.734C786.289 407.578 783.907 408 781.271 408ZM776.735 369.609V408H770.117V369.609H776.735ZM811.145 384.902V408H804.79V379.471H810.854L811.145 384.902ZM819.872 379.286L819.819 385.192C819.433 385.122 819.011 385.069 818.554 385.034C818.114 384.999 817.675 384.981 817.235 384.981C816.146 384.981 815.188 385.14 814.361 385.456C813.535 385.755 812.841 386.194 812.278 386.774C811.733 387.337 811.312 388.022 811.013 388.831C810.714 389.64 810.538 390.545 810.485 391.547L809.035 391.652C809.035 389.859 809.211 388.198 809.562 386.669C809.914 385.14 810.441 383.795 811.145 382.635C811.865 381.475 812.762 380.569 813.834 379.919C814.924 379.269 816.181 378.943 817.604 378.943C817.991 378.943 818.404 378.979 818.844 379.049C819.301 379.119 819.644 379.198 819.872 379.286ZM841.019 401.276V379.471H847.399V408H841.388L841.019 401.276ZM841.915 395.344L844.051 395.291C844.051 397.207 843.84 398.974 843.418 400.591C842.996 402.19 842.346 403.588 841.467 404.783C840.588 405.961 839.463 406.884 838.092 407.552C836.721 408.202 835.077 408.527 833.161 408.527C831.772 408.527 830.498 408.325 829.338 407.921C828.178 407.517 827.176 406.893 826.332 406.049C825.506 405.205 824.864 404.106 824.407 402.753C823.95 401.399 823.722 399.782 823.722 397.901V379.471H830.076V397.954C830.076 398.991 830.199 399.861 830.445 400.564C830.691 401.25 831.025 401.804 831.447 402.226C831.869 402.647 832.361 402.946 832.924 403.122C833.486 403.298 834.084 403.386 834.717 403.386C836.527 403.386 837.951 403.034 838.988 402.331C840.043 401.61 840.79 400.644 841.229 399.431C841.687 398.218 841.915 396.855 841.915 395.344ZM860.267 385.271V408H853.912V379.471H859.897L860.267 385.271ZM859.238 392.681L857.076 392.654C857.076 390.686 857.322 388.866 857.814 387.196C858.307 385.526 859.027 384.076 859.977 382.846C860.926 381.598 862.104 380.64 863.51 379.972C864.934 379.286 866.577 378.943 868.44 378.943C869.741 378.943 870.928 379.137 872 379.523C873.09 379.893 874.03 380.481 874.821 381.29C875.63 382.099 876.245 383.136 876.667 384.401C877.106 385.667 877.326 387.196 877.326 388.989V408H870.972V389.543C870.972 388.154 870.761 387.064 870.339 386.273C869.935 385.482 869.346 384.92 868.572 384.586C867.816 384.234 866.911 384.059 865.856 384.059C864.661 384.059 863.642 384.287 862.798 384.744C861.972 385.201 861.295 385.825 860.768 386.616C860.24 387.407 859.854 388.321 859.607 389.358C859.361 390.396 859.238 391.503 859.238 392.681ZM876.931 390.993L873.951 391.652C873.951 389.93 874.188 388.304 874.663 386.774C875.155 385.228 875.867 383.874 876.799 382.714C877.748 381.536 878.917 380.613 880.306 379.945C881.694 379.277 883.285 378.943 885.078 378.943C886.537 378.943 887.838 379.146 888.98 379.55C890.141 379.937 891.125 380.552 891.934 381.396C892.742 382.239 893.357 383.338 893.779 384.691C894.201 386.027 894.412 387.645 894.412 389.543V408H888.031V389.517C888.031 388.075 887.82 386.959 887.398 386.168C886.994 385.377 886.414 384.832 885.658 384.533C884.902 384.217 883.997 384.059 882.942 384.059C881.958 384.059 881.088 384.243 880.332 384.612C879.594 384.964 878.97 385.465 878.46 386.115C877.95 386.748 877.563 387.478 877.3 388.304C877.054 389.13 876.931 390.026 876.931 390.993ZM916.956 400.274C916.956 399.642 916.798 399.07 916.481 398.561C916.165 398.033 915.559 397.559 914.662 397.137C913.783 396.715 912.482 396.328 910.76 395.977C909.248 395.643 907.859 395.247 906.594 394.79C905.346 394.315 904.273 393.744 903.377 393.076C902.48 392.408 901.786 391.617 901.294 390.703C900.802 389.789 900.556 388.734 900.556 387.539C900.556 386.379 900.811 385.28 901.32 384.243C901.83 383.206 902.56 382.292 903.509 381.501C904.458 380.71 905.609 380.086 906.963 379.629C908.334 379.172 909.863 378.943 911.551 378.943C913.941 378.943 915.989 379.348 917.694 380.156C919.417 380.947 920.735 382.028 921.649 383.399C922.563 384.753 923.021 386.282 923.021 387.987H916.666C916.666 387.231 916.473 386.528 916.086 385.878C915.717 385.21 915.154 384.674 914.398 384.27C913.643 383.848 912.693 383.637 911.551 383.637C910.461 383.637 909.556 383.812 908.835 384.164C908.132 384.498 907.604 384.938 907.253 385.482C906.919 386.027 906.752 386.625 906.752 387.275C906.752 387.75 906.84 388.181 907.016 388.567C907.209 388.937 907.525 389.279 907.965 389.596C908.404 389.895 909.002 390.176 909.758 390.439C910.531 390.703 911.498 390.958 912.658 391.204C914.838 391.661 916.71 392.25 918.274 392.971C919.856 393.674 921.069 394.588 921.913 395.713C922.757 396.82 923.179 398.227 923.179 399.932C923.179 401.197 922.906 402.357 922.361 403.412C921.834 404.449 921.061 405.354 920.041 406.128C919.021 406.884 917.8 407.473 916.376 407.895C914.97 408.316 913.388 408.527 911.63 408.527C909.046 408.527 906.857 408.07 905.064 407.156C903.271 406.225 901.909 405.038 900.978 403.597C900.063 402.138 899.606 400.626 899.606 399.062H905.75C905.82 400.239 906.146 401.18 906.726 401.883C907.323 402.568 908.062 403.069 908.94 403.386C909.837 403.685 910.76 403.834 911.709 403.834C912.852 403.834 913.81 403.685 914.583 403.386C915.356 403.069 915.945 402.647 916.35 402.12C916.754 401.575 916.956 400.96 916.956 400.274Z" fill="white"/>
<path d="M454.264 474.62V476H447.865V474.62H454.264ZM448.199 463.203V476H446.503V463.203H448.199ZM471.238 469.197V470.006C471.238 470.967 471.118 471.828 470.878 472.59C470.638 473.352 470.292 473.999 469.841 474.532C469.39 475.065 468.848 475.473 468.215 475.754C467.588 476.035 466.885 476.176 466.106 476.176C465.35 476.176 464.655 476.035 464.023 475.754C463.396 475.473 462.851 475.065 462.388 474.532C461.931 473.999 461.576 473.352 461.324 472.59C461.072 471.828 460.946 470.967 460.946 470.006V469.197C460.946 468.236 461.069 467.378 461.316 466.622C461.568 465.86 461.922 465.213 462.379 464.68C462.836 464.141 463.378 463.73 464.005 463.449C464.638 463.168 465.332 463.027 466.088 463.027C466.867 463.027 467.57 463.168 468.197 463.449C468.83 463.73 469.372 464.141 469.823 464.68C470.28 465.213 470.629 465.86 470.869 466.622C471.115 467.378 471.238 468.236 471.238 469.197ZM469.56 470.006V469.18C469.56 468.418 469.481 467.744 469.322 467.158C469.17 466.572 468.944 466.08 468.646 465.682C468.347 465.283 467.981 464.981 467.547 464.776C467.119 464.571 466.633 464.469 466.088 464.469C465.561 464.469 465.083 464.571 464.655 464.776C464.234 464.981 463.87 465.283 463.566 465.682C463.267 466.08 463.035 466.572 462.871 467.158C462.707 467.744 462.625 468.418 462.625 469.18V470.006C462.625 470.773 462.707 471.453 462.871 472.045C463.035 472.631 463.27 473.126 463.574 473.53C463.885 473.929 464.251 474.23 464.673 474.436C465.101 474.641 465.578 474.743 466.106 474.743C466.656 474.743 467.146 474.641 467.573 474.436C468.001 474.23 468.361 473.929 468.654 473.53C468.953 473.126 469.179 472.631 469.331 472.045C469.484 471.453 469.56 470.773 469.56 470.006ZM484.082 464.337L479.846 476H478.115L482.993 463.203H484.109L484.082 464.337ZM487.633 476L483.388 464.337L483.362 463.203H484.478L489.373 476H487.633ZM487.413 471.263V472.651H480.224V471.263H487.413ZM500.31 476H497.638L497.656 474.62H500.31C501.224 474.62 501.986 474.43 502.595 474.049C503.205 473.662 503.662 473.123 503.966 472.432C504.277 471.734 504.432 470.92 504.432 469.988V469.206C504.432 468.474 504.344 467.823 504.169 467.255C503.993 466.681 503.735 466.197 503.395 465.805C503.055 465.406 502.639 465.104 502.147 464.899C501.661 464.694 501.101 464.592 500.468 464.592H497.586V463.203H500.468C501.306 463.203 502.071 463.344 502.762 463.625C503.454 463.9 504.048 464.302 504.547 464.829C505.05 465.351 505.437 465.983 505.707 466.728C505.976 467.466 506.111 468.298 506.111 469.224V469.988C506.111 470.914 505.976 471.749 505.707 472.493C505.437 473.231 505.047 473.861 504.538 474.383C504.034 474.904 503.424 475.306 502.71 475.587C502.001 475.862 501.201 476 500.31 476ZM498.544 463.203V476H496.847V463.203H498.544ZM529.206 470.015H525.963L525.945 468.652H528.89C529.376 468.652 529.801 468.57 530.164 468.406C530.527 468.242 530.809 468.008 531.008 467.703C531.213 467.393 531.316 467.023 531.316 466.596C531.316 466.127 531.225 465.746 531.043 465.453C530.867 465.154 530.595 464.938 530.226 464.803C529.862 464.662 529.4 464.592 528.837 464.592H526.341V476H524.645V463.203H528.837C529.493 463.203 530.079 463.271 530.595 463.405C531.11 463.534 531.547 463.739 531.904 464.021C532.268 464.296 532.543 464.647 532.731 465.075C532.918 465.503 533.012 466.016 533.012 466.613C533.012 467.141 532.877 467.618 532.608 468.046C532.338 468.468 531.963 468.813 531.483 469.083C531.008 469.353 530.451 469.525 529.813 469.602L529.206 470.015ZM529.127 476H525.295L526.253 474.62H529.127C529.666 474.62 530.123 474.526 530.498 474.339C530.879 474.151 531.169 473.888 531.368 473.548C531.568 473.202 531.667 472.795 531.667 472.326C531.667 471.852 531.582 471.441 531.412 471.096C531.242 470.75 530.976 470.483 530.612 470.296C530.249 470.108 529.78 470.015 529.206 470.015H526.789L526.807 468.652H530.111L530.472 469.145C531.087 469.197 531.609 469.373 532.036 469.672C532.464 469.965 532.789 470.34 533.012 470.797C533.24 471.254 533.355 471.758 533.355 472.309C533.355 473.105 533.179 473.779 532.827 474.33C532.482 474.875 531.992 475.291 531.359 475.578C530.727 475.859 529.983 476 529.127 476ZM546.357 464.337L542.12 476H540.389L545.267 463.203H546.383L546.357 464.337ZM549.908 476L545.662 464.337L545.636 463.203H546.752L551.648 476H549.908ZM549.688 471.263V472.651H542.498V471.263H549.688ZM562.708 463.203V476H561.038V463.203H562.708ZM566.821 463.203V464.592H556.933V463.203H566.821ZM579.348 463.203V476H577.679V463.203H579.348ZM583.462 463.203V464.592H573.574V463.203H583.462ZM599.25 474.62V476H592.474V474.62H599.25ZM592.816 463.203V476H591.12V463.203H592.816ZM598.354 468.705V470.085H592.474V468.705H598.354ZM599.162 463.203V464.592H592.474V463.203H599.162ZM607.111 463.203H611.347C612.308 463.203 613.119 463.35 613.782 463.643C614.45 463.936 614.956 464.369 615.302 464.943C615.654 465.512 615.829 466.212 615.829 467.044C615.829 467.63 615.709 468.166 615.469 468.652C615.235 469.133 614.895 469.543 614.45 469.883C614.01 470.217 613.483 470.466 612.867 470.63L612.393 470.814H608.411L608.394 469.435H611.4C612.009 469.435 612.516 469.329 612.92 469.118C613.325 468.901 613.629 468.611 613.834 468.248C614.039 467.885 614.142 467.483 614.142 467.044C614.142 466.552 614.045 466.121 613.852 465.752C613.659 465.383 613.354 465.099 612.938 464.899C612.528 464.694 611.997 464.592 611.347 464.592H608.807V476H607.111V463.203ZM614.59 476L611.479 470.199L613.245 470.19L616.401 475.895V476H614.59ZM624.129 463.203L627.452 469.628L630.783 463.203H632.708L628.295 471.219V476H626.599V471.219L622.187 463.203H624.129ZM655.073 464.337L650.837 476H649.105L653.983 463.203H655.1L655.073 464.337ZM658.624 476L654.379 464.337L654.353 463.203H655.469L660.364 476H658.624ZM658.404 471.263V472.651H651.215V471.263H658.404ZM677.682 463.203V476H675.977L669.534 466.13V476H667.838V463.203H669.534L676.003 473.1V463.203H677.682ZM689.911 476H687.239L687.256 474.62H689.911C690.825 474.62 691.586 474.43 692.196 474.049C692.805 473.662 693.262 473.123 693.567 472.432C693.877 471.734 694.033 470.92 694.033 469.988V469.206C694.033 468.474 693.945 467.823 693.769 467.255C693.593 466.681 693.335 466.197 692.996 465.805C692.656 465.406 692.24 465.104 691.748 464.899C691.261 464.694 690.702 464.592 690.069 464.592H687.186V463.203H690.069C690.907 463.203 691.671 463.344 692.363 463.625C693.054 463.9 693.649 464.302 694.147 464.829C694.651 465.351 695.038 465.983 695.307 466.728C695.577 467.466 695.711 468.298 695.711 469.224V469.988C695.711 470.914 695.577 471.749 695.307 472.493C695.038 473.231 694.648 473.861 694.138 474.383C693.634 474.904 693.025 475.306 692.31 475.587C691.601 475.862 690.801 476 689.911 476ZM688.144 463.203V476H686.448V463.203H688.144ZM715.941 463.203V476H714.245V463.203H715.941ZM721.303 468.96V470.349H715.572V468.96H721.303ZM722.173 463.203V464.592H715.572V463.203H722.173ZM731.774 463.203V476H730.077V463.203H731.774ZM750.462 463.203V476H748.757L742.315 466.13V476H740.619V463.203H742.315L748.784 473.1V463.203H750.462ZM762.691 476H760.019L760.037 474.62H762.691C763.605 474.62 764.367 474.43 764.976 474.049C765.586 473.662 766.043 473.123 766.347 472.432C766.658 471.734 766.813 470.92 766.813 469.988V469.206C766.813 468.474 766.725 467.823 766.55 467.255C766.374 466.681 766.116 466.197 765.776 465.805C765.436 465.406 765.02 465.104 764.528 464.899C764.042 464.694 763.482 464.592 762.849 464.592H759.967V463.203H762.849C763.687 463.203 764.452 463.344 765.143 463.625C765.835 463.9 766.429 464.302 766.927 464.829C767.431 465.351 767.818 465.983 768.088 466.728C768.357 467.466 768.492 468.298 768.492 469.224V469.988C768.492 470.914 768.357 471.749 768.088 472.493C767.818 473.231 767.428 473.861 766.919 474.383C766.415 474.904 765.805 475.306 765.091 475.587C764.382 475.862 763.582 476 762.691 476ZM760.925 463.203V476H759.228V463.203H760.925ZM791.403 463.203V476H789.733V463.203H791.403ZM795.516 463.203V464.592H785.628V463.203H795.516ZM811.533 468.705V470.085H804.607V468.705H811.533ZM804.871 463.203V476H803.174V463.203H804.871ZM813.009 463.203V476H811.322V463.203H813.009ZM829.914 474.62V476H823.137V474.62H829.914ZM823.48 463.203V476H821.784V463.203H823.48ZM829.017 468.705V470.085H823.137V468.705H829.017ZM829.826 463.203V464.592H823.137V463.203H829.826ZM847.999 463.203H852.235C853.196 463.203 854.008 463.35 854.67 463.643C855.338 463.936 855.845 464.369 856.191 464.943C856.542 465.512 856.718 466.212 856.718 467.044C856.718 467.63 856.598 468.166 856.358 468.652C856.123 469.133 855.783 469.543 855.338 469.883C854.899 470.217 854.371 470.466 853.756 470.63L853.281 470.814H849.3L849.282 469.435H852.288C852.898 469.435 853.404 469.329 853.809 469.118C854.213 468.901 854.518 468.611 854.723 468.248C854.928 467.885 855.03 467.483 855.03 467.044C855.03 466.552 854.934 466.121 854.74 465.752C854.547 465.383 854.242 465.099 853.826 464.899C853.416 464.694 852.886 464.592 852.235 464.592H849.695V476H847.999V463.203ZM855.479 476L852.367 470.199L854.134 470.19L857.289 475.895V476H855.479ZM866.67 463.203V476H864.974V463.203H866.67ZM884.972 469.628V474.312C884.814 474.547 884.562 474.811 884.216 475.104C883.871 475.391 883.393 475.643 882.784 475.859C882.18 476.07 881.401 476.176 880.446 476.176C879.667 476.176 878.949 476.041 878.293 475.771C877.642 475.496 877.077 475.098 876.596 474.576C876.122 474.049 875.753 473.41 875.489 472.66C875.231 471.904 875.102 471.049 875.102 470.094V469.101C875.102 468.146 875.214 467.293 875.436 466.543C875.665 465.793 875.999 465.157 876.438 464.636C876.878 464.108 877.417 463.71 878.055 463.44C878.694 463.165 879.426 463.027 880.253 463.027C881.231 463.027 882.048 463.197 882.705 463.537C883.367 463.871 883.882 464.334 884.252 464.926C884.627 465.518 884.867 466.191 884.972 466.947H883.276C883.2 466.484 883.047 466.062 882.819 465.682C882.596 465.301 882.277 464.996 881.861 464.768C881.445 464.533 880.909 464.416 880.253 464.416C879.661 464.416 879.148 464.524 878.714 464.741C878.281 464.958 877.923 465.269 877.642 465.673C877.361 466.077 877.15 466.566 877.009 467.141C876.875 467.715 876.807 468.362 876.807 469.083V470.094C876.807 470.832 876.892 471.491 877.062 472.071C877.238 472.651 877.487 473.146 877.809 473.557C878.131 473.961 878.515 474.269 878.961 474.479C879.412 474.69 879.91 474.796 880.455 474.796C881.058 474.796 881.547 474.746 881.922 474.646C882.297 474.541 882.59 474.418 882.801 474.277C883.012 474.131 883.173 473.993 883.285 473.864V470.999H880.323V469.628H884.972ZM901.903 468.705V470.085H894.977V468.705H901.903ZM895.241 463.203V476H893.545V463.203H895.241ZM903.38 463.203V476H901.692V463.203H903.38ZM916.619 463.203V476H914.949V463.203H916.619ZM920.733 463.203V464.592H910.845V463.203H920.733ZM939.961 463.203V476H938.264V463.203H939.961ZM947.686 463.203L942.369 469.171L939.38 472.273L939.099 470.463L941.349 467.984L945.647 463.203H947.686ZM946.051 476L941.314 469.76L942.325 468.415L948.073 476H946.051ZM957.146 463.203V476H955.45V463.203H957.146ZM970.456 463.203V476H968.786V463.203H970.456ZM974.569 463.203V464.592H964.682V463.203H974.569Z" fill="#919191"/>
</svg>
