<svg width="1420" height="888" viewBox="0 0 1420 888" fill="none" xmlns="http://www.w3.org/2000/svg">
<rect width="1420" height="888" fill="#1A1A1A"/>
<path d="M525.825 369.609V408H519.207V369.609H525.825ZM541.487 386.405V391.652H524.138V386.405H541.487ZM543.676 369.609V374.883H524.138V369.609H543.676ZM555.119 379.471V408H548.738V379.471H555.119ZM548.316 371.982C548.316 371.016 548.633 370.216 549.266 369.583C549.916 368.933 550.812 368.607 551.955 368.607C553.08 368.607 553.968 368.933 554.618 369.583C555.269 370.216 555.594 371.016 555.594 371.982C555.594 372.932 555.269 373.723 554.618 374.355C553.968 374.988 553.08 375.305 551.955 375.305C550.812 375.305 549.916 374.988 549.266 374.355C548.633 373.723 548.316 372.932 548.316 371.982ZM568.382 385.562V408H562.027V379.471H568.013L568.382 385.562ZM567.248 392.681L565.191 392.654C565.209 390.633 565.49 388.778 566.035 387.091C566.598 385.403 567.371 383.953 568.355 382.74C569.357 381.527 570.553 380.596 571.941 379.945C573.33 379.277 574.877 378.943 576.582 378.943C577.953 378.943 579.192 379.137 580.3 379.523C581.425 379.893 582.383 380.499 583.174 381.343C583.982 382.187 584.598 383.285 585.02 384.639C585.441 385.975 585.652 387.618 585.652 389.569V408H579.271V389.543C579.271 388.172 579.069 387.091 578.665 386.3C578.278 385.491 577.707 384.92 576.951 384.586C576.213 384.234 575.29 384.059 574.183 384.059C573.093 384.059 572.117 384.287 571.256 384.744C570.395 385.201 569.665 385.825 569.067 386.616C568.487 387.407 568.039 388.321 567.723 389.358C567.406 390.396 567.248 391.503 567.248 392.681ZM609.541 402.094V367.5H615.922V408H610.147L609.541 402.094ZM590.979 394.052V393.498C590.979 391.336 591.233 389.367 591.743 387.592C592.253 385.799 592.991 384.261 593.958 382.978C594.925 381.677 596.103 380.684 597.491 379.998C598.88 379.295 600.444 378.943 602.185 378.943C603.907 378.943 605.419 379.277 606.72 379.945C608.021 380.613 609.128 381.571 610.042 382.819C610.956 384.05 611.686 385.526 612.23 387.249C612.775 388.954 613.162 390.853 613.391 392.944V394.711C613.162 396.75 612.775 398.613 612.23 400.301C611.686 401.988 610.956 403.447 610.042 404.678C609.128 405.908 608.012 406.857 606.693 407.525C605.393 408.193 603.872 408.527 602.132 408.527C600.409 408.527 598.854 408.167 597.465 407.446C596.094 406.726 594.925 405.715 593.958 404.414C592.991 403.113 592.253 401.584 591.743 399.826C591.233 398.051 590.979 396.126 590.979 394.052ZM597.333 393.498V394.052C597.333 395.353 597.447 396.565 597.676 397.69C597.922 398.815 598.3 399.809 598.81 400.67C599.319 401.514 599.979 402.182 600.787 402.674C601.613 403.148 602.598 403.386 603.74 403.386C605.182 403.386 606.368 403.069 607.3 402.437C608.231 401.804 608.961 400.951 609.488 399.879C610.033 398.789 610.402 397.576 610.596 396.24V391.468C610.49 390.431 610.271 389.464 609.937 388.567C609.62 387.671 609.189 386.889 608.645 386.221C608.1 385.535 607.423 385.008 606.614 384.639C605.823 384.252 604.883 384.059 603.793 384.059C602.633 384.059 601.648 384.305 600.84 384.797C600.031 385.289 599.363 385.966 598.836 386.827C598.326 387.688 597.948 388.69 597.702 389.833C597.456 390.976 597.333 392.197 597.333 393.498ZM666.204 369.609V408H662.935L640.865 375.199V408H637.622V369.609H640.865L662.987 402.41V369.609H666.204ZM686.296 408.527C684.433 408.527 682.719 408.185 681.154 407.499C679.607 406.813 678.254 405.847 677.094 404.599C675.951 403.351 675.063 401.874 674.431 400.169C673.815 398.446 673.508 396.565 673.508 394.526V393.393C673.508 391.195 673.833 389.209 674.483 387.434C675.134 385.658 676.03 384.138 677.173 382.872C678.315 381.606 679.616 380.64 681.075 379.972C682.552 379.286 684.099 378.943 685.716 378.943C687.526 378.943 689.135 379.269 690.541 379.919C691.947 380.552 693.125 381.457 694.074 382.635C695.041 383.795 695.771 385.175 696.263 386.774C696.755 388.356 697.001 390.105 697.001 392.021V393.946H675.406V391.257H693.863V390.888C693.828 389.288 693.503 387.794 692.888 386.405C692.29 384.999 691.394 383.856 690.198 382.978C689.003 382.099 687.509 381.659 685.716 381.659C684.38 381.659 683.149 381.94 682.024 382.503C680.917 383.065 679.959 383.874 679.15 384.929C678.359 385.966 677.744 387.205 677.305 388.646C676.883 390.07 676.672 391.652 676.672 393.393V394.526C676.672 396.108 676.9 397.585 677.357 398.956C677.832 400.31 678.5 401.505 679.361 402.542C680.24 403.579 681.277 404.388 682.473 404.968C683.668 405.548 684.986 405.838 686.428 405.838C688.115 405.838 689.609 405.53 690.91 404.915C692.211 404.282 693.38 403.289 694.417 401.936L696.395 403.465C695.779 404.379 695.006 405.223 694.074 405.996C693.16 406.77 692.062 407.385 690.778 407.842C689.495 408.299 688.001 408.527 686.296 408.527ZM711.134 401.329L718.016 379.471H720.23L718.912 385.351L711.714 408H709.499L711.134 401.329ZM703.988 379.471L710.026 401.461L711.318 408H709.024L700.745 379.471H703.988ZM728.8 401.382L734.68 379.471H737.923L729.644 408H727.376L728.8 401.382ZM720.679 379.471L727.455 401.145L729.169 408H726.954L719.598 385.324L718.358 379.471H720.679ZM779.636 398.561C779.636 397.506 779.46 396.565 779.108 395.739C778.757 394.913 778.177 394.175 777.368 393.524C776.577 392.856 775.505 392.241 774.151 391.679C772.815 391.099 771.146 390.527 769.142 389.965C767.226 389.42 765.494 388.822 763.947 388.172C762.4 387.521 761.073 386.774 759.966 385.931C758.876 385.087 758.041 384.103 757.461 382.978C756.881 381.835 756.591 380.508 756.591 378.996C756.591 377.52 756.907 376.175 757.54 374.962C758.173 373.749 759.061 372.703 760.203 371.824C761.363 370.945 762.726 370.269 764.29 369.794C765.872 369.319 767.604 369.082 769.484 369.082C772.174 369.082 774.494 369.592 776.445 370.611C778.414 371.631 779.935 373.011 781.007 374.751C782.097 376.474 782.642 378.407 782.642 380.552H779.398C779.398 378.882 779.003 377.396 778.212 376.096C777.438 374.777 776.313 373.749 774.837 373.011C773.378 372.255 771.594 371.877 769.484 371.877C767.375 371.877 765.6 372.202 764.158 372.853C762.734 373.485 761.653 374.338 760.915 375.41C760.194 376.465 759.834 377.643 759.834 378.943C759.834 379.857 760.01 380.701 760.361 381.475C760.713 382.23 761.284 382.942 762.075 383.61C762.884 384.261 763.947 384.876 765.266 385.456C766.584 386.019 768.21 386.555 770.144 387.064C772.183 387.627 773.993 388.251 775.575 388.937C777.157 389.622 778.493 390.413 779.583 391.31C780.673 392.188 781.499 393.217 782.062 394.395C782.624 395.572 782.905 396.943 782.905 398.508C782.905 400.072 782.571 401.479 781.903 402.727C781.253 403.957 780.33 405.003 779.135 405.864C777.957 406.726 776.56 407.385 774.942 407.842C773.343 408.299 771.594 408.527 769.695 408.527C767.99 408.527 766.294 408.308 764.606 407.868C762.919 407.429 761.372 406.752 759.966 405.838C758.577 404.906 757.461 403.711 756.617 402.252C755.791 400.793 755.378 399.053 755.378 397.031H758.595C758.595 398.648 758.92 400.011 759.57 401.118C760.221 402.226 761.082 403.122 762.154 403.808C763.244 404.493 764.439 404.994 765.74 405.311C767.059 405.609 768.377 405.759 769.695 405.759C771.717 405.759 773.466 405.46 774.942 404.862C776.437 404.265 777.588 403.43 778.396 402.357C779.223 401.268 779.636 400.002 779.636 398.561ZM787.44 394.184V393.313C787.44 391.239 787.739 389.323 788.337 387.565C788.935 385.808 789.787 384.287 790.895 383.004C792.02 381.721 793.364 380.728 794.929 380.024C796.493 379.304 798.233 378.943 800.149 378.943C802.083 378.943 803.832 379.304 805.396 380.024C806.961 380.728 808.306 381.721 809.431 383.004C810.556 384.287 811.417 385.808 812.015 387.565C812.612 389.323 812.911 391.239 812.911 393.313V394.184C812.911 396.258 812.612 398.174 812.015 399.932C811.417 401.672 810.556 403.184 809.431 404.467C808.323 405.75 806.987 406.752 805.423 407.473C803.858 408.176 802.118 408.527 800.202 408.527C798.269 408.527 796.52 408.176 794.955 407.473C793.391 406.752 792.046 405.75 790.921 404.467C789.796 403.184 788.935 401.672 788.337 399.932C787.739 398.174 787.44 396.258 787.44 394.184ZM790.578 393.313V394.184C790.578 395.748 790.789 397.233 791.211 398.64C791.633 400.028 792.248 401.268 793.057 402.357C793.865 403.43 794.867 404.273 796.062 404.889C797.258 405.504 798.638 405.812 800.202 405.812C801.749 405.812 803.111 405.504 804.289 404.889C805.484 404.273 806.486 403.43 807.295 402.357C808.104 401.268 808.71 400.028 809.114 398.64C809.536 397.233 809.747 395.748 809.747 394.184V393.313C809.747 391.767 809.536 390.299 809.114 388.91C808.71 387.521 808.095 386.282 807.269 385.192C806.46 384.103 805.458 383.241 804.263 382.608C803.067 381.976 801.696 381.659 800.149 381.659C798.603 381.659 797.231 381.976 796.036 382.608C794.858 383.241 793.856 384.103 793.03 385.192C792.222 386.282 791.606 387.521 791.185 388.91C790.78 390.299 790.578 391.767 790.578 393.313ZM837.723 401.408V379.471H840.887V408H837.854L837.723 401.408ZM838.303 396.135L839.938 396.082C839.938 397.875 839.727 399.527 839.305 401.039C838.883 402.551 838.224 403.869 837.327 404.994C836.431 406.119 835.271 406.989 833.847 407.604C832.423 408.22 830.709 408.527 828.705 408.527C827.316 408.527 826.042 408.334 824.882 407.947C823.739 407.543 822.755 406.91 821.929 406.049C821.103 405.188 820.461 404.071 820.004 402.7C819.564 401.329 819.345 399.668 819.345 397.717V379.471H822.482V397.77C822.482 399.299 822.649 400.573 822.983 401.593C823.335 402.612 823.81 403.43 824.407 404.045C825.022 404.66 825.726 405.1 826.517 405.363C827.308 405.627 828.16 405.759 829.074 405.759C831.395 405.759 833.223 405.311 834.559 404.414C835.912 403.518 836.87 402.34 837.433 400.881C838.013 399.404 838.303 397.822 838.303 396.135ZM852.277 385.562V408H849.14V379.471H852.146L852.277 385.562ZM851.565 391.969L850.168 391.178C850.273 389.49 850.616 387.908 851.196 386.432C851.776 384.955 852.559 383.654 853.543 382.529C854.545 381.404 855.714 380.525 857.05 379.893C858.403 379.26 859.897 378.943 861.532 378.943C862.956 378.943 864.23 379.137 865.355 379.523C866.48 379.91 867.438 380.525 868.229 381.369C869.021 382.213 869.618 383.294 870.022 384.612C870.444 385.931 870.655 387.539 870.655 389.438V408H867.491V389.411C867.491 387.442 867.219 385.904 866.674 384.797C866.129 383.672 865.355 382.872 864.354 382.397C863.352 381.923 862.165 381.686 860.794 381.686C859.282 381.686 857.955 382.02 856.812 382.688C855.688 383.338 854.738 384.19 853.965 385.245C853.209 386.282 852.629 387.398 852.225 388.594C851.82 389.771 851.601 390.896 851.565 391.969ZM897.365 402.463V367.5H900.529V408H897.576L897.365 402.463ZM877.563 394.025V393.472C877.563 391.257 877.818 389.262 878.328 387.486C878.838 385.693 879.567 384.164 880.517 382.898C881.483 381.615 882.644 380.64 883.997 379.972C885.351 379.286 886.88 378.943 888.585 378.943C890.255 378.943 891.731 379.216 893.015 379.761C894.298 380.306 895.396 381.088 896.311 382.107C897.242 383.127 897.989 384.34 898.552 385.746C899.132 387.152 899.554 388.717 899.817 390.439V397.479C899.606 399.097 899.22 400.582 898.657 401.936C898.095 403.271 897.348 404.44 896.416 405.442C895.484 406.427 894.359 407.191 893.041 407.736C891.74 408.264 890.237 408.527 888.532 408.527C886.845 408.527 885.324 408.176 883.971 407.473C882.617 406.77 881.466 405.776 880.517 404.493C879.567 403.192 878.838 401.654 878.328 399.879C877.818 398.104 877.563 396.152 877.563 394.025ZM880.728 393.472V394.025C880.728 395.695 880.895 397.242 881.229 398.666C881.562 400.09 882.072 401.329 882.758 402.384C883.443 403.438 884.313 404.265 885.368 404.862C886.423 405.46 887.671 405.759 889.112 405.759C890.923 405.759 892.443 405.416 893.674 404.73C894.904 404.027 895.889 403.104 896.627 401.962C897.365 400.802 897.901 399.536 898.235 398.165V389.965C898.024 389.033 897.717 388.084 897.312 387.117C896.908 386.15 896.354 385.263 895.651 384.454C894.966 383.628 894.087 382.969 893.015 382.477C891.96 381.967 890.677 381.712 889.165 381.712C887.706 381.712 886.449 382.011 885.395 382.608C884.34 383.206 883.461 384.041 882.758 385.113C882.072 386.168 881.562 387.407 881.229 388.831C880.895 390.255 880.728 391.802 880.728 393.472Z" fill="white"/>
<path d="M436.337 472.766C436.337 472.467 436.29 472.203 436.196 471.975C436.108 471.74 435.95 471.529 435.721 471.342C435.499 471.154 435.188 470.976 434.79 470.806C434.397 470.636 433.899 470.463 433.296 470.287C432.663 470.1 432.092 469.892 431.582 469.663C431.072 469.429 430.636 469.162 430.272 468.863C429.909 468.564 429.631 468.222 429.437 467.835C429.244 467.448 429.147 467.006 429.147 466.508C429.147 466.01 429.25 465.55 429.455 465.128C429.66 464.706 429.953 464.34 430.334 464.029C430.72 463.713 431.18 463.467 431.714 463.291C432.247 463.115 432.842 463.027 433.498 463.027C434.459 463.027 435.273 463.212 435.941 463.581C436.615 463.944 437.128 464.422 437.479 465.014C437.831 465.6 438.007 466.227 438.007 466.895H436.319C436.319 466.414 436.217 465.989 436.012 465.62C435.806 465.245 435.496 464.952 435.08 464.741C434.664 464.524 434.137 464.416 433.498 464.416C432.894 464.416 432.396 464.507 432.004 464.688C431.611 464.87 431.318 465.116 431.125 465.427C430.937 465.737 430.844 466.092 430.844 466.49C430.844 466.76 430.899 467.006 431.011 467.229C431.128 467.445 431.306 467.647 431.547 467.835C431.793 468.022 432.103 468.195 432.478 468.354C432.859 468.512 433.313 468.664 433.841 468.811C434.567 469.016 435.194 469.244 435.721 469.496C436.249 469.748 436.682 470.032 437.022 470.349C437.368 470.659 437.623 471.014 437.787 471.412C437.957 471.805 438.042 472.25 438.042 472.748C438.042 473.27 437.936 473.741 437.725 474.163C437.514 474.585 437.213 474.945 436.82 475.244C436.428 475.543 435.956 475.774 435.405 475.938C434.86 476.097 434.251 476.176 433.577 476.176C432.985 476.176 432.402 476.094 431.828 475.93C431.26 475.766 430.741 475.52 430.272 475.191C429.809 474.863 429.437 474.459 429.156 473.979C428.881 473.492 428.743 472.93 428.743 472.291H430.43C430.43 472.73 430.515 473.108 430.685 473.425C430.855 473.735 431.087 473.993 431.38 474.198C431.678 474.403 432.015 474.556 432.39 474.655C432.771 474.749 433.167 474.796 433.577 474.796C434.169 474.796 434.67 474.714 435.08 474.55C435.49 474.386 435.801 474.151 436.012 473.847C436.228 473.542 436.337 473.182 436.337 472.766ZM449.33 472.133L451.87 463.203H453.101L452.389 466.675L449.655 476H448.434L449.33 472.133ZM446.702 463.203L448.724 471.957L449.33 476H448.117L445.015 463.203H446.702ZM456.388 471.948L458.365 463.203H460.062L456.968 476H455.755L456.388 471.948ZM453.285 463.203L455.755 472.133L456.651 476H455.43L452.793 466.675L452.072 463.203H453.285ZM472.053 464.337L467.817 476H466.085L470.963 463.203H472.079L472.053 464.337ZM475.604 476L471.359 464.337L471.332 463.203H472.448L477.344 476H475.604ZM475.384 471.263V472.651H468.195V471.263H475.384ZM489.538 470.981H486.119V469.602H489.538C490.2 469.602 490.736 469.496 491.146 469.285C491.556 469.074 491.855 468.781 492.042 468.406C492.236 468.031 492.333 467.604 492.333 467.123C492.333 466.684 492.236 466.271 492.042 465.884C491.855 465.497 491.556 465.187 491.146 464.952C490.736 464.712 490.2 464.592 489.538 464.592H486.514V476H484.818V463.203H489.538C490.504 463.203 491.322 463.37 491.99 463.704C492.658 464.038 493.165 464.501 493.51 465.093C493.856 465.679 494.029 466.35 494.029 467.105C494.029 467.926 493.856 468.626 493.51 469.206C493.165 469.786 492.658 470.229 491.99 470.533C491.322 470.832 490.504 470.981 489.538 470.981ZM513.854 463.203V476H512.158V463.203H513.854ZM521.58 463.203L516.263 469.171L513.274 472.273L512.993 470.463L515.243 467.984L519.541 463.203H521.58ZM519.945 476L515.208 469.76L516.219 468.415L521.967 476H519.945ZM531.04 463.203V476H529.344V463.203H531.04ZM544.35 463.203V476H542.68V463.203H544.35ZM548.463 463.203V464.592H538.576V463.203H548.463ZM575.848 469.197V470.006C575.848 470.967 575.727 471.828 575.487 472.59C575.247 473.352 574.901 473.999 574.45 474.532C573.999 475.065 573.457 475.473 572.824 475.754C572.197 476.035 571.494 476.176 570.715 476.176C569.959 476.176 569.265 476.035 568.632 475.754C568.005 475.473 567.46 475.065 566.997 474.532C566.54 473.999 566.185 473.352 565.934 472.59C565.682 471.828 565.556 470.967 565.556 470.006V469.197C565.556 468.236 565.679 467.378 565.925 466.622C566.177 465.86 566.531 465.213 566.988 464.68C567.445 464.141 567.987 463.73 568.614 463.449C569.247 463.168 569.941 463.027 570.697 463.027C571.477 463.027 572.18 463.168 572.807 463.449C573.439 463.73 573.981 464.141 574.433 464.68C574.89 465.213 575.238 465.86 575.478 466.622C575.725 467.378 575.848 468.236 575.848 469.197ZM574.169 470.006V469.18C574.169 468.418 574.09 467.744 573.932 467.158C573.779 466.572 573.554 466.08 573.255 465.682C572.956 465.283 572.59 464.981 572.156 464.776C571.728 464.571 571.242 464.469 570.697 464.469C570.17 464.469 569.692 464.571 569.265 464.776C568.843 464.981 568.479 465.283 568.175 465.682C567.876 466.08 567.644 466.572 567.48 467.158C567.316 467.744 567.234 468.418 567.234 469.18V470.006C567.234 470.773 567.316 471.453 567.48 472.045C567.644 472.631 567.879 473.126 568.184 473.53C568.494 473.929 568.86 474.23 569.282 474.436C569.71 474.641 570.187 474.743 570.715 474.743C571.266 474.743 571.755 474.641 572.183 474.436C572.61 474.23 572.971 473.929 573.264 473.53C573.562 473.126 573.788 472.631 573.94 472.045C574.093 471.453 574.169 470.773 574.169 470.006ZM591.469 463.203H593.156V471.86C593.156 472.821 592.943 473.621 592.515 474.26C592.087 474.898 591.519 475.379 590.81 475.701C590.107 476.018 589.342 476.176 588.516 476.176C587.649 476.176 586.863 476.018 586.16 475.701C585.463 475.379 584.909 474.898 584.499 474.26C584.095 473.621 583.893 472.821 583.893 471.86V463.203H585.571V471.86C585.571 472.528 585.695 473.079 585.941 473.513C586.187 473.946 586.529 474.269 586.969 474.479C587.414 474.69 587.93 474.796 588.516 474.796C589.108 474.796 589.623 474.69 590.063 474.479C590.508 474.269 590.854 473.946 591.1 473.513C591.346 473.079 591.469 472.528 591.469 471.86V463.203ZM606.308 463.203V476H604.638V463.203H606.308ZM610.421 463.203V464.592H600.534V463.203H610.421ZM635.274 463.203H636.962V471.86C636.962 472.821 636.748 473.621 636.32 474.26C635.892 474.898 635.324 475.379 634.615 475.701C633.912 476.018 633.147 476.176 632.321 476.176C631.454 476.176 630.669 476.018 629.966 475.701C629.268 475.379 628.715 474.898 628.305 474.26C627.9 473.621 627.698 472.821 627.698 471.86V463.203H629.377V471.86C629.377 472.528 629.5 473.079 629.746 473.513C629.992 473.946 630.335 474.269 630.774 474.479C631.22 474.69 631.735 474.796 632.321 474.796C632.913 474.796 633.429 474.69 633.868 474.479C634.313 474.269 634.659 473.946 634.905 473.513C635.151 473.079 635.274 472.528 635.274 471.86V463.203ZM652.205 472.766C652.205 472.467 652.158 472.203 652.065 471.975C651.977 471.74 651.818 471.529 651.59 471.342C651.367 471.154 651.057 470.976 650.658 470.806C650.266 470.636 649.768 470.463 649.164 470.287C648.531 470.1 647.96 469.892 647.45 469.663C646.941 469.429 646.504 469.162 646.141 468.863C645.777 468.564 645.499 468.222 645.306 467.835C645.112 467.448 645.016 467.006 645.016 466.508C645.016 466.01 645.118 465.55 645.323 465.128C645.528 464.706 645.821 464.34 646.202 464.029C646.589 463.713 647.049 463.467 647.582 463.291C648.115 463.115 648.71 463.027 649.366 463.027C650.327 463.027 651.142 463.212 651.81 463.581C652.484 463.944 652.996 464.422 653.348 465.014C653.699 465.6 653.875 466.227 653.875 466.895H652.188C652.188 466.414 652.085 465.989 651.88 465.62C651.675 465.245 651.364 464.952 650.948 464.741C650.532 464.524 650.005 464.416 649.366 464.416C648.763 464.416 648.265 464.507 647.872 464.688C647.48 464.87 647.187 465.116 646.993 465.427C646.806 465.737 646.712 466.092 646.712 466.49C646.712 466.76 646.768 467.006 646.879 467.229C646.996 467.445 647.175 467.647 647.415 467.835C647.661 468.022 647.972 468.195 648.347 468.354C648.728 468.512 649.182 468.664 649.709 468.811C650.436 469.016 651.063 469.244 651.59 469.496C652.117 469.748 652.551 470.032 652.891 470.349C653.236 470.659 653.491 471.014 653.655 471.412C653.825 471.805 653.91 472.25 653.91 472.748C653.91 473.27 653.805 473.741 653.594 474.163C653.383 474.585 653.081 474.945 652.689 475.244C652.296 475.543 651.824 475.774 651.274 475.938C650.729 476.097 650.119 476.176 649.445 476.176C648.854 476.176 648.271 476.094 647.696 475.93C647.128 475.766 646.609 475.52 646.141 475.191C645.678 474.863 645.306 474.459 645.025 473.979C644.749 473.492 644.611 472.93 644.611 472.291H646.299C646.299 472.73 646.384 473.108 646.554 473.425C646.724 473.735 646.955 473.993 647.248 474.198C647.547 474.403 647.884 474.556 648.259 474.655C648.64 474.749 649.035 474.796 649.445 474.796C650.037 474.796 650.538 474.714 650.948 474.55C651.359 474.386 651.669 474.151 651.88 473.847C652.097 473.542 652.205 473.182 652.205 472.766ZM663.652 463.203V476H661.955V463.203H663.652ZM682.34 463.203V476H680.635L674.193 466.13V476H672.497V463.203H674.193L680.662 473.1V463.203H682.34ZM700.563 469.628V474.312C700.405 474.547 700.153 474.811 699.807 475.104C699.462 475.391 698.984 475.643 698.375 475.859C697.771 476.07 696.992 476.176 696.037 476.176C695.258 476.176 694.54 476.041 693.884 475.771C693.233 475.496 692.668 475.098 692.187 474.576C691.713 474.049 691.344 473.41 691.08 472.66C690.822 471.904 690.693 471.049 690.693 470.094V469.101C690.693 468.146 690.805 467.293 691.027 466.543C691.256 465.793 691.59 465.157 692.029 464.636C692.469 464.108 693.008 463.71 693.646 463.44C694.285 463.165 695.017 463.027 695.844 463.027C696.822 463.027 697.64 463.197 698.296 463.537C698.958 463.871 699.474 464.334 699.843 464.926C700.218 465.518 700.458 466.191 700.563 466.947H698.867C698.791 466.484 698.639 466.062 698.41 465.682C698.187 465.301 697.868 464.996 697.452 464.768C697.036 464.533 696.5 464.416 695.844 464.416C695.252 464.416 694.739 464.524 694.306 464.741C693.872 464.958 693.515 465.269 693.233 465.673C692.952 466.077 692.741 466.566 692.6 467.141C692.466 467.715 692.398 468.362 692.398 469.083V470.094C692.398 470.832 692.483 471.491 692.653 472.071C692.829 472.651 693.078 473.146 693.4 473.557C693.723 473.961 694.106 474.269 694.552 474.479C695.003 474.69 695.501 474.796 696.046 474.796C696.649 474.796 697.139 474.746 697.514 474.646C697.889 474.541 698.182 474.418 698.392 474.277C698.603 474.131 698.765 473.993 698.876 473.864V470.999H695.914V469.628H700.563ZM726.181 472.766C726.181 472.467 726.134 472.203 726.04 471.975C725.953 471.74 725.794 471.529 725.566 471.342C725.343 471.154 725.033 470.976 724.634 470.806C724.242 470.636 723.744 470.463 723.14 470.287C722.507 470.1 721.936 469.892 721.426 469.663C720.916 469.429 720.48 469.162 720.117 468.863C719.753 468.564 719.475 468.222 719.282 467.835C719.088 467.448 718.992 467.006 718.992 466.508C718.992 466.01 719.094 465.55 719.299 465.128C719.504 464.706 719.797 464.34 720.178 464.029C720.565 463.713 721.025 463.467 721.558 463.291C722.091 463.115 722.686 463.027 723.342 463.027C724.303 463.027 725.118 463.212 725.786 463.581C726.459 463.944 726.972 464.422 727.324 465.014C727.675 465.6 727.851 466.227 727.851 466.895H726.163C726.163 466.414 726.061 465.989 725.856 465.62C725.651 465.245 725.34 464.952 724.924 464.741C724.508 464.524 723.981 464.416 723.342 464.416C722.739 464.416 722.241 464.507 721.848 464.688C721.455 464.87 721.162 465.116 720.969 465.427C720.782 465.737 720.688 466.092 720.688 466.49C720.688 466.76 720.744 467.006 720.855 467.229C720.972 467.445 721.151 467.647 721.391 467.835C721.637 468.022 721.948 468.195 722.323 468.354C722.703 468.512 723.158 468.664 723.685 468.811C724.411 469.016 725.038 469.244 725.566 469.496C726.093 469.748 726.527 470.032 726.867 470.349C727.212 470.659 727.467 471.014 727.631 471.412C727.801 471.805 727.886 472.25 727.886 472.748C727.886 473.27 727.781 473.741 727.57 474.163C727.359 474.585 727.057 474.945 726.664 475.244C726.272 475.543 725.8 475.774 725.249 475.938C724.704 476.097 724.095 476.176 723.421 476.176C722.829 476.176 722.246 476.094 721.672 475.93C721.104 475.766 720.585 475.52 720.117 475.191C719.654 474.863 719.282 474.459 719 473.979C718.725 473.492 718.587 472.93 718.587 472.291H720.275C720.275 472.73 720.36 473.108 720.53 473.425C720.7 473.735 720.931 473.993 721.224 474.198C721.523 474.403 721.86 474.556 722.235 474.655C722.616 474.749 723.011 474.796 723.421 474.796C724.013 474.796 724.514 474.714 724.924 474.55C725.334 474.386 725.645 474.151 725.856 473.847C726.073 473.542 726.181 473.182 726.181 472.766ZM740.528 470.981H737.109V469.602H740.528C741.19 469.602 741.726 469.496 742.136 469.285C742.547 469.074 742.845 468.781 743.033 468.406C743.226 468.031 743.323 467.604 743.323 467.123C743.323 466.684 743.226 466.271 743.033 465.884C742.845 465.497 742.547 465.187 742.136 464.952C741.726 464.712 741.19 464.592 740.528 464.592H737.505V476H735.808V463.203H740.528C741.495 463.203 742.312 463.37 742.98 463.704C743.648 464.038 744.155 464.501 744.501 465.093C744.846 465.679 745.019 466.35 745.019 467.105C745.019 467.926 744.846 468.626 744.501 469.206C744.155 469.786 743.648 470.229 742.98 470.533C742.312 470.832 741.495 470.981 740.528 470.981ZM762.776 469.197V470.006C762.776 470.967 762.656 471.828 762.416 472.59C762.176 473.352 761.83 473.999 761.379 474.532C760.928 475.065 760.386 475.473 759.753 475.754C759.126 476.035 758.423 476.176 757.643 476.176C756.888 476.176 756.193 476.035 755.56 475.754C754.933 475.473 754.388 475.065 753.926 474.532C753.469 473.999 753.114 473.352 752.862 472.59C752.61 471.828 752.484 470.967 752.484 470.006V469.197C752.484 468.236 752.607 467.378 752.853 466.622C753.105 465.86 753.46 465.213 753.917 464.68C754.374 464.141 754.916 463.73 755.543 463.449C756.176 463.168 756.87 463.027 757.626 463.027C758.405 463.027 759.108 463.168 759.735 463.449C760.368 463.73 760.91 464.141 761.361 464.68C761.818 465.213 762.167 465.86 762.407 466.622C762.653 467.378 762.776 468.236 762.776 469.197ZM761.097 470.006V469.18C761.097 468.418 761.018 467.744 760.86 467.158C760.708 466.572 760.482 466.08 760.183 465.682C759.885 465.283 759.518 464.981 759.085 464.776C758.657 464.571 758.171 464.469 757.626 464.469C757.098 464.469 756.621 464.571 756.193 464.776C755.771 464.981 755.408 465.283 755.103 465.682C754.805 466.08 754.573 466.572 754.409 467.158C754.245 467.744 754.163 468.418 754.163 469.18V470.006C754.163 470.773 754.245 471.453 754.409 472.045C754.573 472.631 754.807 473.126 755.112 473.53C755.423 473.929 755.789 474.23 756.211 474.436C756.638 474.641 757.116 474.743 757.643 474.743C758.194 474.743 758.683 474.641 759.111 474.436C759.539 474.23 759.899 473.929 760.192 473.53C760.491 473.126 760.717 472.631 760.869 472.045C761.021 471.453 761.097 470.773 761.097 470.006ZM775.559 463.203V476H773.889V463.203H775.559ZM779.672 463.203V464.592H769.784V463.203H779.672ZM795.091 474.62V476H788.693V474.62H795.091ZM789.027 463.203V476H787.33V463.203H789.027ZM804.613 463.203V476H802.917V463.203H804.613ZM822.915 469.628V474.312C822.757 474.547 822.505 474.811 822.159 475.104C821.813 475.391 821.336 475.643 820.726 475.859C820.123 476.07 819.344 476.176 818.388 476.176C817.609 476.176 816.891 476.041 816.235 475.771C815.585 475.496 815.019 475.098 814.539 474.576C814.064 474.049 813.695 473.41 813.431 472.66C813.174 471.904 813.045 471.049 813.045 470.094V469.101C813.045 468.146 813.156 467.293 813.379 466.543C813.607 465.793 813.941 465.157 814.381 464.636C814.82 464.108 815.359 463.71 815.998 463.44C816.636 463.165 817.369 463.027 818.195 463.027C819.174 463.027 819.991 463.197 820.647 463.537C821.309 463.871 821.825 464.334 822.194 464.926C822.569 465.518 822.809 466.191 822.915 466.947H821.219C821.142 466.484 820.99 466.062 820.761 465.682C820.539 465.301 820.219 464.996 819.803 464.768C819.387 464.533 818.851 464.416 818.195 464.416C817.603 464.416 817.091 464.524 816.657 464.741C816.223 464.958 815.866 465.269 815.585 465.673C815.303 466.077 815.093 466.566 814.952 467.141C814.817 467.715 814.75 468.362 814.75 469.083V470.094C814.75 470.832 814.835 471.491 815.005 472.071C815.18 472.651 815.429 473.146 815.752 473.557C816.074 473.961 816.458 474.269 816.903 474.479C817.354 474.69 817.852 474.796 818.397 474.796C819.001 474.796 819.49 474.746 819.865 474.646C820.24 474.541 820.533 474.418 820.744 474.277C820.955 474.131 821.116 473.993 821.227 473.864V470.999H818.265V469.628H822.915ZM839.846 468.705V470.085H832.92V468.705H839.846ZM833.184 463.203V476H831.487V463.203H833.184ZM841.322 463.203V476H839.635V463.203H841.322ZM854.562 463.203V476H852.892V463.203H854.562ZM858.675 463.203V464.592H848.787V463.203H858.675ZM880.768 470.015H877.525L877.508 468.652H880.452C880.938 468.652 881.363 468.57 881.726 468.406C882.09 468.242 882.371 468.008 882.57 467.703C882.775 467.393 882.878 467.023 882.878 466.596C882.878 466.127 882.787 465.746 882.605 465.453C882.429 465.154 882.157 464.938 881.788 464.803C881.425 464.662 880.962 464.592 880.399 464.592H877.903V476H876.207V463.203H880.399C881.055 463.203 881.641 463.271 882.157 463.405C882.673 463.534 883.109 463.739 883.467 464.021C883.83 464.296 884.105 464.647 884.293 465.075C884.48 465.503 884.574 466.016 884.574 466.613C884.574 467.141 884.439 467.618 884.17 468.046C883.9 468.468 883.525 468.813 883.045 469.083C882.57 469.353 882.013 469.525 881.375 469.602L880.768 470.015ZM880.689 476H876.857L877.815 474.62H880.689C881.228 474.62 881.685 474.526 882.06 474.339C882.441 474.151 882.731 473.888 882.93 473.548C883.13 473.202 883.229 472.795 883.229 472.326C883.229 471.852 883.144 471.441 882.974 471.096C882.804 470.75 882.538 470.483 882.175 470.296C881.811 470.108 881.343 470.015 880.768 470.015H878.351L878.369 468.652H881.674L882.034 469.145C882.649 469.197 883.171 469.373 883.598 469.672C884.026 469.965 884.351 470.34 884.574 470.797C884.802 471.254 884.917 471.758 884.917 472.309C884.917 473.105 884.741 473.779 884.389 474.33C884.044 474.875 883.554 475.291 882.922 475.578C882.289 475.859 881.545 476 880.689 476ZM893.182 463.203H897.418C898.379 463.203 899.19 463.35 899.853 463.643C900.521 463.936 901.027 464.369 901.373 464.943C901.725 465.512 901.9 466.212 901.9 467.044C901.9 467.63 901.78 468.166 901.54 468.652C901.306 469.133 900.966 469.543 900.521 469.883C900.081 470.217 899.554 470.466 898.938 470.63L898.464 470.814H894.482L894.465 469.435H897.471C898.08 469.435 898.587 469.329 898.991 469.118C899.396 468.901 899.7 468.611 899.905 468.248C900.11 467.885 900.213 467.483 900.213 467.044C900.213 466.552 900.116 466.121 899.923 465.752C899.729 465.383 899.425 465.099 899.009 464.899C898.599 464.694 898.068 464.592 897.418 464.592H894.878V476H893.182V463.203ZM900.661 476L897.55 470.199L899.316 470.19L902.472 475.895V476H900.661ZM919.886 469.197V470.006C919.886 470.967 919.766 471.828 919.526 472.59C919.285 473.352 918.94 473.999 918.489 474.532C918.037 475.065 917.495 475.473 916.863 475.754C916.236 476.035 915.532 476.176 914.753 476.176C913.997 476.176 913.303 476.035 912.67 475.754C912.043 475.473 911.498 475.065 911.035 474.532C910.578 473.999 910.224 473.352 909.972 472.59C909.72 471.828 909.594 470.967 909.594 470.006V469.197C909.594 468.236 909.717 467.378 909.963 466.622C910.215 465.86 910.57 465.213 911.027 464.68C911.484 464.141 912.026 463.73 912.653 463.449C913.285 463.168 913.98 463.027 914.736 463.027C915.515 463.027 916.218 463.168 916.845 463.449C917.478 463.73 918.02 464.141 918.471 464.68C918.928 465.213 919.277 465.86 919.517 466.622C919.763 467.378 919.886 468.236 919.886 469.197ZM918.207 470.006V469.18C918.207 468.418 918.128 467.744 917.97 467.158C917.818 466.572 917.592 466.08 917.293 465.682C916.994 465.283 916.628 464.981 916.195 464.776C915.767 464.571 915.281 464.469 914.736 464.469C914.208 464.469 913.731 464.571 913.303 464.776C912.881 464.981 912.518 465.283 912.213 465.682C911.914 466.08 911.683 466.572 911.519 467.158C911.355 467.744 911.273 468.418 911.273 469.18V470.006C911.273 470.773 911.355 471.453 911.519 472.045C911.683 472.631 911.917 473.126 912.222 473.53C912.532 473.929 912.899 474.23 913.321 474.436C913.748 474.641 914.226 474.743 914.753 474.743C915.304 474.743 915.793 474.641 916.221 474.436C916.649 474.23 917.009 473.929 917.302 473.53C917.601 473.126 917.826 472.631 917.979 472.045C918.131 471.453 918.207 470.773 918.207 470.006ZM931.552 472.133L934.092 463.203H935.323L934.611 466.675L931.877 476H930.656L931.552 472.133ZM928.924 463.203L930.946 471.957L931.552 476H930.339L927.237 463.203H928.924ZM938.61 471.948L940.587 463.203H942.284L939.19 476H937.977L938.61 471.948ZM935.507 463.203L937.977 472.133L938.874 476H937.652L935.015 466.675L934.294 463.203H935.507ZM956.745 472.766C956.745 472.467 956.698 472.203 956.604 471.975C956.516 471.74 956.358 471.529 956.13 471.342C955.907 471.154 955.596 470.976 955.198 470.806C954.805 470.636 954.307 470.463 953.704 470.287C953.071 470.1 952.5 469.892 951.99 469.663C951.48 469.429 951.044 469.162 950.68 468.863C950.317 468.564 950.039 468.222 949.845 467.835C949.652 467.448 949.555 467.006 949.555 466.508C949.555 466.01 949.658 465.55 949.863 465.128C950.068 464.706 950.361 464.34 950.742 464.029C951.129 463.713 951.589 463.467 952.122 463.291C952.655 463.115 953.25 463.027 953.906 463.027C954.867 463.027 955.681 463.212 956.349 463.581C957.023 463.944 957.536 464.422 957.887 465.014C958.239 465.6 958.415 466.227 958.415 466.895H956.727C956.727 466.414 956.625 465.989 956.42 465.62C956.215 465.245 955.904 464.952 955.488 464.741C955.072 464.524 954.545 464.416 953.906 464.416C953.302 464.416 952.804 464.507 952.412 464.688C952.019 464.87 951.726 465.116 951.533 465.427C951.345 465.737 951.252 466.092 951.252 466.49C951.252 466.76 951.307 467.006 951.419 467.229C951.536 467.445 951.715 467.647 951.955 467.835C952.201 468.022 952.511 468.195 952.886 468.354C953.267 468.512 953.721 468.664 954.249 468.811C954.975 469.016 955.602 469.244 956.13 469.496C956.657 469.748 957.091 470.032 957.43 470.349C957.776 470.659 958.031 471.014 958.195 471.412C958.365 471.805 958.45 472.25 958.45 472.748C958.45 473.27 958.344 473.741 958.134 474.163C957.923 474.585 957.621 474.945 957.228 475.244C956.836 475.543 956.364 475.774 955.813 475.938C955.268 476.097 954.659 476.176 953.985 476.176C953.393 476.176 952.81 476.094 952.236 475.93C951.668 475.766 951.149 475.52 950.68 475.191C950.218 474.863 949.845 474.459 949.564 473.979C949.289 473.492 949.151 472.93 949.151 472.291H950.839C950.839 472.73 950.924 473.108 951.094 473.425C951.263 473.735 951.495 473.993 951.788 474.198C952.087 474.403 952.424 474.556 952.799 474.655C953.179 474.749 953.575 474.796 953.985 474.796C954.577 474.796 955.078 474.714 955.488 474.55C955.898 474.386 956.209 474.151 956.42 473.847C956.636 473.542 956.745 473.182 956.745 472.766ZM974.502 474.62V476H967.726V474.62H974.502ZM968.068 463.203V476H966.372V463.203H968.068ZM973.605 468.705V470.085H967.726V468.705H973.605ZM974.414 463.203V464.592H967.726V463.203H974.414ZM982.363 463.203H986.599C987.56 463.203 988.371 463.35 989.033 463.643C989.701 463.936 990.208 464.369 990.554 464.943C990.906 465.512 991.081 466.212 991.081 467.044C991.081 467.63 990.961 468.166 990.721 468.652C990.487 469.133 990.147 469.543 989.701 469.883C989.262 470.217 988.735 470.466 988.119 470.63L987.645 470.814H983.663L983.646 469.435H986.652C987.261 469.435 987.768 469.329 988.172 469.118C988.576 468.901 988.881 468.611 989.086 468.248C989.291 467.885 989.394 467.483 989.394 467.044C989.394 466.552 989.297 466.121 989.104 465.752C988.91 465.383 988.606 465.099 988.19 464.899C987.78 464.694 987.249 464.592 986.599 464.592H984.059V476H982.363V463.203ZM989.842 476L986.731 470.199L988.497 470.19L991.653 475.895V476H989.842Z" fill="#919191"/>
</svg>
