<svg width="1420" height="888" viewBox="0 0 1420 888" fill="none" xmlns="http://www.w3.org/2000/svg">
<rect width="1420" height="888" fill="#1A1A1A"/>
<path d="M642.078 371.903L628.789 408H625.414L639.916 369.609H642.263L642.078 371.903ZM654.154 408L640.839 371.903L640.654 369.609H643.001L657.529 408H654.154ZM651.781 394.447V397.242H631.399V394.447H651.781ZM681.022 402.463V367.5H684.187V408H681.233L681.022 402.463ZM661.221 394.025V393.472C661.221 391.257 661.476 389.262 661.985 387.486C662.495 385.693 663.225 384.164 664.174 382.898C665.141 381.615 666.301 380.64 667.654 379.972C669.008 379.286 670.537 378.943 672.242 378.943C673.912 378.943 675.389 379.216 676.672 379.761C677.955 380.306 679.054 381.088 679.968 382.107C680.899 383.127 681.646 384.34 682.209 385.746C682.789 387.152 683.211 388.717 683.475 390.439V397.479C683.264 399.097 682.877 400.582 682.314 401.936C681.752 403.271 681.005 404.44 680.073 405.442C679.142 406.427 678.017 407.191 676.698 407.736C675.397 408.264 673.895 408.527 672.189 408.527C670.502 408.527 668.981 408.176 667.628 407.473C666.274 406.77 665.123 405.776 664.174 404.493C663.225 403.192 662.495 401.654 661.985 399.879C661.476 398.104 661.221 396.152 661.221 394.025ZM664.385 393.472V394.025C664.385 395.695 664.552 397.242 664.886 398.666C665.22 400.09 665.729 401.329 666.415 402.384C667.101 403.438 667.971 404.265 669.025 404.862C670.08 405.46 671.328 405.759 672.77 405.759C674.58 405.759 676.101 405.416 677.331 404.73C678.562 404.027 679.546 403.104 680.284 401.962C681.022 400.802 681.559 399.536 681.893 398.165V389.965C681.682 389.033 681.374 388.084 680.97 387.117C680.565 386.15 680.012 385.263 679.309 384.454C678.623 383.628 677.744 382.969 676.672 382.477C675.617 381.967 674.334 381.712 672.822 381.712C671.363 381.712 670.106 382.011 669.052 382.608C667.997 383.206 667.118 384.041 666.415 385.113C665.729 386.168 665.22 387.407 664.886 388.831C664.552 390.255 664.385 391.802 664.385 393.472ZM711.028 402.463V367.5H714.192V408H711.239L711.028 402.463ZM691.227 394.025V393.472C691.227 391.257 691.481 389.262 691.991 387.486C692.501 385.693 693.23 384.164 694.18 382.898C695.146 381.615 696.307 380.64 697.66 379.972C699.014 379.286 700.543 378.943 702.248 378.943C703.918 378.943 705.395 379.216 706.678 379.761C707.961 380.306 709.06 381.088 709.974 382.107C710.905 383.127 711.652 384.34 712.215 385.746C712.795 387.152 713.217 388.717 713.48 390.439V397.479C713.27 399.097 712.883 400.582 712.32 401.936C711.758 403.271 711.011 404.44 710.079 405.442C709.147 406.427 708.022 407.191 706.704 407.736C705.403 408.264 703.9 408.527 702.195 408.527C700.508 408.527 698.987 408.176 697.634 407.473C696.28 406.77 695.129 405.776 694.18 404.493C693.23 403.192 692.501 401.654 691.991 399.879C691.481 398.104 691.227 396.152 691.227 394.025ZM694.391 393.472V394.025C694.391 395.695 694.558 397.242 694.892 398.666C695.226 400.09 695.735 401.329 696.421 402.384C697.106 403.438 697.977 404.265 699.031 404.862C700.086 405.46 701.334 405.759 702.775 405.759C704.586 405.759 706.106 405.416 707.337 404.73C708.567 404.027 709.552 403.104 710.29 401.962C711.028 400.802 711.564 399.536 711.898 398.165V389.965C711.688 389.033 711.38 388.084 710.976 387.117C710.571 386.15 710.018 385.263 709.314 384.454C708.629 383.628 707.75 382.969 706.678 382.477C705.623 381.967 704.34 381.712 702.828 381.712C701.369 381.712 700.112 382.011 699.058 382.608C698.003 383.206 697.124 384.041 696.421 385.113C695.735 386.168 695.226 387.407 694.892 388.831C694.558 390.255 694.391 391.802 694.391 393.472ZM742.062 369.609V408H735.444V369.609H742.062ZM757.725 386.405V391.652H740.375V386.405H757.725ZM759.913 369.609V374.883H740.375V369.609H759.913ZM770.223 369.609L778.37 383.61L786.518 369.609H794.138L782.536 388.62L794.428 408H786.729L778.37 393.735L770.012 408H762.286L774.204 388.62L762.576 369.609H770.223Z" fill="white"/>
<path d="M534.512 463.203V476H532.816V463.203H534.512ZM539.873 468.96V470.349H534.143V468.96H539.873ZM540.743 463.203V464.592H534.143V463.203H540.743ZM550.344 463.203V476H548.648V463.203H550.344ZM569.033 463.203V476H567.328L560.885 466.13V476H559.189V463.203H560.885L567.354 473.1V463.203H569.033ZM582.694 464.337L578.458 476H576.727L581.604 463.203H582.721L582.694 464.337ZM586.245 476L582 464.337L581.974 463.203H583.09L587.985 476H586.245ZM586.025 471.263V472.651H578.836V471.263H586.025ZM603.22 474.62V476H596.821V474.62H603.22ZM597.155 463.203V476H595.459V463.203H597.155ZM618.683 474.62V476H612.285V474.62H618.683ZM612.619 463.203V476H610.922V463.203H612.619ZM624.865 463.203L628.187 469.628L631.518 463.203H633.443L629.031 471.219V476H627.335V471.219L622.923 463.203H624.865ZM641.11 470.094L647.184 472.555V474.277L639.994 470.946V469.936L641.11 470.094ZM647.184 468.072L641.119 470.568L639.994 470.691V469.672L647.184 466.35V468.072ZM673.75 474.62V476H667.352V474.62H673.75ZM667.686 463.203V476H665.99V463.203H667.686ZM690.725 469.197V470.006C690.725 470.967 690.605 471.828 690.365 472.59C690.125 473.352 689.779 473.999 689.328 474.532C688.877 475.065 688.335 475.473 687.702 475.754C687.075 476.035 686.372 476.176 685.592 476.176C684.837 476.176 684.142 476.035 683.509 475.754C682.882 475.473 682.338 475.065 681.875 474.532C681.418 473.999 681.063 473.352 680.811 472.59C680.559 471.828 680.433 470.967 680.433 470.006V469.197C680.433 468.236 680.556 467.378 680.802 466.622C681.054 465.86 681.409 465.213 681.866 464.68C682.323 464.141 682.865 463.73 683.492 463.449C684.125 463.168 684.819 463.027 685.575 463.027C686.354 463.027 687.057 463.168 687.684 463.449C688.317 463.73 688.859 464.141 689.31 464.68C689.767 465.213 690.116 465.86 690.356 466.622C690.602 467.378 690.725 468.236 690.725 469.197ZM689.047 470.006V469.18C689.047 468.418 688.967 467.744 688.809 467.158C688.657 466.572 688.431 466.08 688.132 465.682C687.834 465.283 687.467 464.981 687.034 464.776C686.606 464.571 686.12 464.469 685.575 464.469C685.047 464.469 684.57 464.571 684.142 464.776C683.72 464.981 683.357 465.283 683.052 465.682C682.754 466.08 682.522 466.572 682.358 467.158C682.194 467.744 682.112 468.418 682.112 469.18V470.006C682.112 470.773 682.194 471.453 682.358 472.045C682.522 472.631 682.756 473.126 683.061 473.53C683.372 473.929 683.738 474.23 684.16 474.436C684.588 474.641 685.065 474.743 685.592 474.743C686.143 474.743 686.632 474.641 687.06 474.436C687.488 474.23 687.848 473.929 688.141 473.53C688.44 473.126 688.666 472.631 688.818 472.045C688.97 471.453 689.047 470.773 689.047 470.006ZM703.569 464.337L699.333 476H697.601L702.479 463.203H703.596L703.569 464.337ZM707.12 476L702.875 464.337L702.849 463.203H703.965L708.86 476H707.12ZM706.9 471.263V472.651H699.711V471.263H706.9ZM719.797 476H717.125L717.143 474.62H719.797C720.711 474.62 721.473 474.43 722.082 474.049C722.692 473.662 723.149 473.123 723.453 472.432C723.764 471.734 723.919 470.92 723.919 469.988V469.206C723.919 468.474 723.831 467.823 723.655 467.255C723.48 466.681 723.222 466.197 722.882 465.805C722.542 465.406 722.126 465.104 721.634 464.899C721.148 464.694 720.588 464.592 719.955 464.592H717.072V463.203H719.955C720.793 463.203 721.558 463.344 722.249 463.625C722.941 463.9 723.535 464.302 724.033 464.829C724.537 465.351 724.924 465.983 725.193 466.728C725.463 467.466 725.598 468.298 725.598 469.224V469.988C725.598 470.914 725.463 471.749 725.193 472.493C724.924 473.231 724.534 473.861 724.025 474.383C723.521 474.904 722.911 475.306 722.196 475.587C721.487 475.862 720.688 476 719.797 476ZM718.03 463.203V476H716.334V463.203H718.03ZM753.589 469.628V474.312C753.43 474.547 753.178 474.811 752.833 475.104C752.487 475.391 752.009 475.643 751.4 475.859C750.797 476.07 750.017 476.176 749.062 476.176C748.283 476.176 747.565 476.041 746.909 475.771C746.258 475.496 745.693 475.098 745.213 474.576C744.738 474.049 744.369 473.41 744.105 472.66C743.847 471.904 743.718 471.049 743.718 470.094V469.101C743.718 468.146 743.83 467.293 744.052 466.543C744.281 465.793 744.615 465.157 745.054 464.636C745.494 464.108 746.033 463.71 746.672 463.44C747.31 463.165 748.043 463.027 748.869 463.027C749.847 463.027 750.665 463.197 751.321 463.537C751.983 463.871 752.499 464.334 752.868 464.926C753.243 465.518 753.483 466.191 753.589 466.947H751.892C751.816 466.484 751.664 466.062 751.435 465.682C751.213 465.301 750.893 464.996 750.477 464.768C750.061 464.533 749.525 464.416 748.869 464.416C748.277 464.416 747.764 464.524 747.331 464.741C746.897 464.958 746.54 465.269 746.258 465.673C745.977 466.077 745.766 466.566 745.626 467.141C745.491 467.715 745.423 468.362 745.423 469.083V470.094C745.423 470.832 745.508 471.491 745.678 472.071C745.854 472.651 746.103 473.146 746.425 473.557C746.748 473.961 747.131 474.269 747.577 474.479C748.028 474.69 748.526 474.796 749.071 474.796C749.674 474.796 750.164 474.746 750.539 474.646C750.914 474.541 751.207 474.418 751.418 474.277C751.629 474.131 751.79 473.993 751.901 473.864V470.999H748.939V469.628H753.589ZM769.482 463.203H771.17V471.86C771.17 472.821 770.956 473.621 770.528 474.26C770.1 474.898 769.532 475.379 768.823 475.701C768.12 476.018 767.355 476.176 766.529 476.176C765.662 476.176 764.877 476.018 764.174 475.701C763.476 475.379 762.923 474.898 762.513 474.26C762.108 473.621 761.906 472.821 761.906 471.86V463.203H763.585V471.86C763.585 472.528 763.708 473.079 763.954 473.513C764.2 473.946 764.543 474.269 764.982 474.479C765.428 474.69 765.943 474.796 766.529 474.796C767.121 474.796 767.637 474.69 768.076 474.479C768.521 474.269 768.867 473.946 769.113 473.513C769.359 473.079 769.482 472.528 769.482 471.86V463.203ZM781.412 463.203V476H779.716V463.203H781.412ZM794.722 463.203V476H793.052V463.203H794.722ZM798.835 463.203V464.592H788.948V463.203H798.835ZM810.528 464.337L806.292 476H804.56L809.438 463.203H810.554L810.528 464.337ZM814.079 476L809.834 464.337L809.807 463.203H810.923L815.819 476H814.079ZM813.859 471.263V472.651H806.669V471.263H813.859ZM823.293 463.203H827.529C828.49 463.203 829.302 463.35 829.964 463.643C830.632 463.936 831.138 464.369 831.484 464.943C831.836 465.512 832.012 466.212 832.012 467.044C832.012 467.63 831.891 468.166 831.651 468.652C831.417 469.133 831.077 469.543 830.632 469.883C830.192 470.217 829.665 470.466 829.05 470.63L828.575 470.814H824.594L824.576 469.435H827.582C828.191 469.435 828.698 469.329 829.102 469.118C829.507 468.901 829.811 468.611 830.016 468.248C830.221 467.885 830.324 467.483 830.324 467.044C830.324 466.552 830.227 466.121 830.034 465.752C829.841 465.383 829.536 465.099 829.12 464.899C828.71 464.694 828.18 464.592 827.529 464.592H824.989V476H823.293V463.203ZM830.772 476L827.661 470.199L829.428 470.19L832.583 475.895V476H830.772ZM850.369 463.203H854.606C855.567 463.203 856.378 463.35 857.04 463.643C857.708 463.936 858.215 464.369 858.561 464.943C858.912 465.512 859.088 466.212 859.088 467.044C859.088 467.63 858.968 468.166 858.728 468.652C858.493 469.133 858.154 469.543 857.708 469.883C857.269 470.217 856.741 470.466 856.126 470.63L855.652 470.814H851.67L851.653 469.435H854.658C855.268 469.435 855.775 469.329 856.179 469.118C856.583 468.901 856.888 468.611 857.093 468.248C857.298 467.885 857.401 467.483 857.401 467.044C857.401 466.552 857.304 466.121 857.111 465.752C856.917 465.383 856.613 465.099 856.197 464.899C855.786 464.694 855.256 464.592 854.606 464.592H852.066V476H850.369V463.203ZM857.849 476L854.738 470.199L856.504 470.19L859.659 475.895V476H857.849ZM869.041 463.203V476H867.344V463.203H869.041ZM887.343 469.628V474.312C887.184 474.547 886.932 474.811 886.587 475.104C886.241 475.391 885.763 475.643 885.154 475.859C884.551 476.07 883.771 476.176 882.816 476.176C882.037 476.176 881.319 476.041 880.663 475.771C880.012 475.496 879.447 475.098 878.967 474.576C878.492 474.049 878.123 473.41 877.859 472.66C877.601 471.904 877.472 471.049 877.472 470.094V469.101C877.472 468.146 877.584 467.293 877.806 466.543C878.035 465.793 878.369 465.157 878.808 464.636C879.248 464.108 879.787 463.71 880.426 463.44C881.064 463.165 881.797 463.027 882.623 463.027C883.601 463.027 884.419 463.197 885.075 463.537C885.737 463.871 886.253 464.334 886.622 464.926C886.997 465.518 887.237 466.191 887.343 466.947H885.646C885.57 466.484 885.418 466.062 885.189 465.682C884.967 465.301 884.647 464.996 884.231 464.768C883.815 464.533 883.279 464.416 882.623 464.416C882.031 464.416 881.518 464.524 881.085 464.741C880.651 464.958 880.294 465.269 880.012 465.673C879.731 466.077 879.52 466.566 879.38 467.141C879.245 467.715 879.177 468.362 879.177 469.083V470.094C879.177 470.832 879.262 471.491 879.432 472.071C879.608 472.651 879.857 473.146 880.179 473.557C880.502 473.961 880.885 474.269 881.331 474.479C881.782 474.69 882.28 474.796 882.825 474.796C883.428 474.796 883.918 474.746 884.293 474.646C884.668 474.541 884.961 474.418 885.172 474.277C885.383 474.131 885.544 473.993 885.655 473.864V470.999H882.693V469.628H887.343Z" fill="#919191"/>
</svg>
