<svg width="1689" height="90" viewBox="0 0 1689 90" fill="none" xmlns="http://www.w3.org/2000/svg">
<rect x="172" y="2" width="502" height="86" stroke="#FF6B00" stroke-width="4"/>
<path d="M270.156 35.0938H277.58C279.102 35.0938 280.41 35.3216 281.504 35.7773C282.607 36.2331 283.454 36.9076 284.047 37.8008C284.639 38.694 284.936 39.7923 284.936 41.0957C284.936 42.1621 284.753 43.0781 284.389 43.8438C284.033 44.6003 283.527 45.2337 282.871 45.7441C282.224 46.2454 281.463 46.6465 280.588 46.9473L279.289 47.6309H272.836L272.809 44.4316H277.607C278.327 44.4316 278.924 44.304 279.398 44.0488C279.872 43.7936 280.228 43.4382 280.465 42.9824C280.711 42.5267 280.834 41.998 280.834 41.3965C280.834 40.7585 280.715 40.207 280.479 39.7422C280.242 39.2773 279.882 38.9219 279.398 38.6758C278.915 38.4297 278.309 38.3066 277.58 38.3066H274.258V55H270.156V35.0938ZM281.285 55L276.746 46.127L281.08 46.0996L285.674 54.8086V55H281.285ZM294.656 55.2734C293.508 55.2734 292.478 55.0911 291.566 54.7266C290.655 54.3529 289.88 53.8379 289.242 53.1816C288.613 52.5254 288.13 51.7643 287.793 50.8984C287.456 50.0234 287.287 49.0938 287.287 48.1094V47.5625C287.287 46.4414 287.447 45.416 287.766 44.4863C288.085 43.5566 288.54 42.75 289.133 42.0664C289.734 41.3828 290.464 40.8587 291.32 40.4941C292.177 40.1204 293.143 39.9336 294.219 39.9336C295.267 39.9336 296.197 40.1068 297.008 40.4531C297.819 40.7995 298.498 41.2917 299.045 41.9297C299.601 42.5677 300.02 43.3333 300.303 44.2266C300.585 45.1107 300.727 46.0951 300.727 47.1797V48.8203H288.969V46.1953H296.857V45.8945C296.857 45.3477 296.757 44.86 296.557 44.4316C296.365 43.9941 296.074 43.6478 295.682 43.3926C295.29 43.1374 294.788 43.0098 294.178 43.0098C293.658 43.0098 293.212 43.1237 292.838 43.3516C292.464 43.5794 292.159 43.8984 291.922 44.3086C291.694 44.7188 291.521 45.2018 291.402 45.7578C291.293 46.3047 291.238 46.9062 291.238 47.5625V48.1094C291.238 48.7018 291.32 49.2487 291.484 49.75C291.658 50.2513 291.899 50.6842 292.209 51.0488C292.528 51.4134 292.911 51.696 293.357 51.8965C293.813 52.097 294.328 52.1973 294.902 52.1973C295.613 52.1973 296.274 52.0605 296.885 51.7871C297.505 51.5046 298.038 51.0807 298.484 50.5156L300.398 52.5938C300.089 53.0404 299.665 53.4688 299.127 53.8789C298.598 54.2891 297.96 54.6263 297.213 54.8906C296.465 55.1458 295.613 55.2734 294.656 55.2734ZM309.08 52.1973C309.563 52.1973 309.992 52.1061 310.365 51.9238C310.739 51.7324 311.031 51.4681 311.24 51.1309C311.459 50.7845 311.573 50.3789 311.582 49.9141H315.287C315.278 50.9531 315 51.8783 314.453 52.6895C313.906 53.4915 313.173 54.125 312.252 54.5898C311.331 55.0456 310.301 55.2734 309.162 55.2734C308.014 55.2734 307.011 55.082 306.154 54.6992C305.307 54.3164 304.6 53.7878 304.035 53.1133C303.47 52.4297 303.046 51.6367 302.764 50.7344C302.481 49.8229 302.34 48.8477 302.34 47.8086V47.4121C302.34 46.3639 302.481 45.3887 302.764 44.4863C303.046 43.5749 303.47 42.7819 304.035 42.1074C304.6 41.4238 305.307 40.8906 306.154 40.5078C307.002 40.125 307.995 39.9336 309.135 39.9336C310.347 39.9336 311.409 40.166 312.32 40.6309C313.241 41.0957 313.961 41.7611 314.48 42.627C315.009 43.4837 315.278 44.5 315.287 45.6758H311.582C311.573 45.1836 311.468 44.737 311.268 44.3359C311.076 43.9349 310.794 43.6159 310.42 43.3789C310.055 43.1328 309.604 43.0098 309.066 43.0098C308.492 43.0098 308.023 43.1328 307.658 43.3789C307.294 43.6159 307.011 43.944 306.811 44.3633C306.61 44.7734 306.469 45.2428 306.387 45.7715C306.314 46.291 306.277 46.8379 306.277 47.4121V47.8086C306.277 48.3828 306.314 48.9342 306.387 49.4629C306.46 49.9915 306.596 50.4609 306.797 50.8711C307.007 51.2812 307.294 51.6048 307.658 51.8418C308.023 52.0788 308.497 52.1973 309.08 52.1973ZM316.941 47.7539V47.4668C316.941 46.3822 317.096 45.3841 317.406 44.4727C317.716 43.5521 318.167 42.7546 318.76 42.0801C319.352 41.4056 320.081 40.8815 320.947 40.5078C321.813 40.125 322.807 39.9336 323.928 39.9336C325.049 39.9336 326.047 40.125 326.922 40.5078C327.797 40.8815 328.531 41.4056 329.123 42.0801C329.725 42.7546 330.18 43.5521 330.49 44.4727C330.8 45.3841 330.955 46.3822 330.955 47.4668V47.7539C330.955 48.8294 330.8 49.8275 330.49 50.748C330.18 51.6595 329.725 52.457 329.123 53.1406C328.531 53.8151 327.801 54.3392 326.936 54.7129C326.07 55.0866 325.076 55.2734 323.955 55.2734C322.834 55.2734 321.836 55.0866 320.961 54.7129C320.095 54.3392 319.361 53.8151 318.76 53.1406C318.167 52.457 317.716 51.6595 317.406 50.748C317.096 49.8275 316.941 48.8294 316.941 47.7539ZM320.879 47.4668V47.7539C320.879 48.3737 320.934 48.9525 321.043 49.4902C321.152 50.028 321.326 50.502 321.562 50.9121C321.809 51.3132 322.128 51.6276 322.52 51.8555C322.911 52.0833 323.39 52.1973 323.955 52.1973C324.502 52.1973 324.971 52.0833 325.363 51.8555C325.755 51.6276 326.07 51.3132 326.307 50.9121C326.544 50.502 326.717 50.028 326.826 49.4902C326.945 48.9525 327.004 48.3737 327.004 47.7539V47.4668C327.004 46.8652 326.945 46.3001 326.826 45.7715C326.717 45.2337 326.539 44.7598 326.293 44.3496C326.056 43.9303 325.742 43.6022 325.35 43.3652C324.958 43.1283 324.484 43.0098 323.928 43.0098C323.372 43.0098 322.898 43.1283 322.506 43.3652C322.123 43.6022 321.809 43.9303 321.562 44.3496C321.326 44.7598 321.152 45.2337 321.043 45.7715C320.934 46.3001 320.879 46.8652 320.879 47.4668ZM337.312 43.4336V55H333.375V40.207H337.08L337.312 43.4336ZM341.77 40.1113L341.701 43.7617C341.51 43.7344 341.277 43.7116 341.004 43.6934C340.74 43.666 340.498 43.6523 340.279 43.6523C339.723 43.6523 339.24 43.7253 338.83 43.8711C338.429 44.0078 338.092 44.2129 337.818 44.4863C337.554 44.7598 337.354 45.0924 337.217 45.4844C337.089 45.8763 337.016 46.3229 336.998 46.8242L336.205 46.5781C336.205 45.6211 336.301 44.7415 336.492 43.9395C336.684 43.1283 336.962 42.4219 337.326 41.8203C337.7 41.2188 338.156 40.7539 338.693 40.4258C339.231 40.0977 339.846 39.9336 340.539 39.9336C340.758 39.9336 340.981 39.9518 341.209 39.9883C341.437 40.0156 341.624 40.0566 341.77 40.1113ZM352.092 51.7734V34H356.057V55H352.488L352.092 51.7734ZM342.74 47.7812V47.4941C342.74 46.3639 342.868 45.3385 343.123 44.418C343.378 43.4883 343.752 42.6908 344.244 42.0254C344.736 41.36 345.342 40.8451 346.062 40.4805C346.783 40.1159 347.603 39.9336 348.523 39.9336C349.389 39.9336 350.146 40.1159 350.793 40.4805C351.449 40.8451 352.005 41.3646 352.461 42.0391C352.926 42.7044 353.299 43.4928 353.582 44.4043C353.865 45.3066 354.07 46.2956 354.197 47.3711V48C354.07 49.0299 353.865 49.987 353.582 50.8711C353.299 51.7552 352.926 52.5299 352.461 53.1953C352.005 53.8516 351.449 54.362 350.793 54.7266C350.137 55.0911 349.371 55.2734 348.496 55.2734C347.576 55.2734 346.755 55.0866 346.035 54.7129C345.324 54.3392 344.723 53.8151 344.23 53.1406C343.747 52.4661 343.378 51.6732 343.123 50.7617C342.868 49.8503 342.74 48.8568 342.74 47.7812ZM346.678 47.4941V47.7812C346.678 48.3919 346.723 48.9616 346.814 49.4902C346.915 50.0189 347.074 50.4883 347.293 50.8984C347.521 51.2995 347.812 51.6139 348.168 51.8418C348.533 52.0605 348.975 52.1699 349.494 52.1699C350.169 52.1699 350.725 52.0195 351.162 51.7188C351.6 51.4089 351.932 50.985 352.16 50.4473C352.397 49.9095 352.534 49.2897 352.57 48.5879V46.7969C352.543 46.2227 352.461 45.7077 352.324 45.252C352.197 44.7871 352.005 44.3906 351.75 44.0625C351.504 43.7344 351.194 43.4792 350.82 43.2969C350.456 43.1146 350.023 43.0234 349.521 43.0234C349.011 43.0234 348.574 43.1419 348.209 43.3789C347.844 43.6068 347.548 43.9212 347.32 44.3223C347.102 44.7233 346.938 45.1973 346.828 45.7441C346.728 46.2819 346.678 46.8652 346.678 47.4941ZM379.709 51.8008V55H369.113V51.8008H379.709ZM370.453 35.0938V55H366.352V35.0938H370.453ZM378.328 43.2012V46.3184H369.113V43.2012H378.328ZM379.695 35.0938V38.3066H369.113V35.0938H379.695ZM386.531 52.1289L389.812 40.207H393.928L388.938 55H386.449L386.531 52.1289ZM384.275 40.207L387.57 52.1426L387.639 55H385.137L380.146 40.207H384.275ZM402.309 55.2734C401.16 55.2734 400.13 55.0911 399.219 54.7266C398.307 54.3529 397.533 53.8379 396.895 53.1816C396.266 52.5254 395.783 51.7643 395.445 50.8984C395.108 50.0234 394.939 49.0938 394.939 48.1094V47.5625C394.939 46.4414 395.099 45.416 395.418 44.4863C395.737 43.5566 396.193 42.75 396.785 42.0664C397.387 41.3828 398.116 40.8587 398.973 40.4941C399.829 40.1204 400.796 39.9336 401.871 39.9336C402.919 39.9336 403.849 40.1068 404.66 40.4531C405.471 40.7995 406.15 41.2917 406.697 41.9297C407.253 42.5677 407.673 43.3333 407.955 44.2266C408.238 45.1107 408.379 46.0951 408.379 47.1797V48.8203H396.621V46.1953H404.51V45.8945C404.51 45.3477 404.41 44.86 404.209 44.4316C404.018 43.9941 403.726 43.6478 403.334 43.3926C402.942 43.1374 402.441 43.0098 401.83 43.0098C401.311 43.0098 400.864 43.1237 400.49 43.3516C400.117 43.5794 399.811 43.8984 399.574 44.3086C399.346 44.7188 399.173 45.2018 399.055 45.7578C398.945 46.3047 398.891 46.9062 398.891 47.5625V48.1094C398.891 48.7018 398.973 49.2487 399.137 49.75C399.31 50.2513 399.551 50.6842 399.861 51.0488C400.18 51.4134 400.563 51.696 401.01 51.8965C401.465 52.097 401.98 52.1973 402.555 52.1973C403.266 52.1973 403.926 52.0605 404.537 51.7871C405.157 51.5046 405.69 51.0807 406.137 50.5156L408.051 52.5938C407.741 53.0404 407.317 53.4688 406.779 53.8789C406.251 54.2891 405.613 54.6263 404.865 54.8906C404.118 55.1458 403.266 55.2734 402.309 55.2734ZM414.477 43.3652V55H410.539V40.207H414.23L414.477 43.3652ZM413.902 47.084H412.836C412.836 45.9902 412.977 45.0059 413.26 44.1309C413.542 43.2467 413.939 42.4948 414.449 41.875C414.96 41.2461 415.566 40.7676 416.268 40.4395C416.979 40.1022 417.771 39.9336 418.646 39.9336C419.339 39.9336 419.973 40.0339 420.547 40.2344C421.121 40.4349 421.613 40.7539 422.023 41.1914C422.443 41.6289 422.762 42.2077 422.98 42.9277C423.208 43.6478 423.322 44.5273 423.322 45.5664V55H419.357V45.5527C419.357 44.8965 419.266 44.3861 419.084 44.0215C418.902 43.6569 418.633 43.4017 418.277 43.2559C417.931 43.1009 417.503 43.0234 416.992 43.0234C416.464 43.0234 416.003 43.1283 415.611 43.3379C415.229 43.5475 414.91 43.8392 414.654 44.2129C414.408 44.5775 414.221 45.0059 414.094 45.498C413.966 45.9902 413.902 46.5189 413.902 47.084ZM433.562 40.207V42.9961H424.949V40.207H433.562ZM427.082 36.5566H431.02V50.543C431.02 50.9714 431.074 51.2995 431.184 51.5273C431.302 51.7552 431.475 51.9147 431.703 52.0059C431.931 52.0879 432.218 52.1289 432.564 52.1289C432.811 52.1289 433.029 52.1198 433.221 52.1016C433.421 52.0742 433.59 52.0469 433.727 52.0195L433.74 54.918C433.403 55.0273 433.038 55.1139 432.646 55.1777C432.255 55.2415 431.822 55.2734 431.348 55.2734C430.482 55.2734 429.725 55.1322 429.078 54.8496C428.44 54.5579 427.948 54.0931 427.602 53.4551C427.255 52.8171 427.082 51.9785 427.082 50.9395V36.5566ZM443.803 50.9121C443.803 50.6296 443.721 50.3743 443.557 50.1465C443.393 49.9186 443.087 49.709 442.641 49.5176C442.203 49.3171 441.57 49.1348 440.74 48.9707C439.993 48.8066 439.296 48.6016 438.648 48.3555C438.01 48.1003 437.454 47.7949 436.98 47.4395C436.516 47.084 436.151 46.6647 435.887 46.1816C435.622 45.6895 435.49 45.1289 435.49 44.5C435.49 43.8802 435.622 43.2969 435.887 42.75C436.16 42.2031 436.548 41.7201 437.049 41.3008C437.559 40.8724 438.179 40.5397 438.908 40.3027C439.646 40.0566 440.476 39.9336 441.396 39.9336C442.682 39.9336 443.785 40.1387 444.705 40.5488C445.635 40.959 446.346 41.5241 446.838 42.2441C447.339 42.9551 447.59 43.7663 447.59 44.6777H443.652C443.652 44.2949 443.57 43.9531 443.406 43.6523C443.251 43.3424 443.005 43.1009 442.668 42.9277C442.34 42.7454 441.911 42.6543 441.383 42.6543C440.945 42.6543 440.567 42.7318 440.248 42.8867C439.929 43.0326 439.683 43.2331 439.51 43.4883C439.346 43.7344 439.264 44.0078 439.264 44.3086C439.264 44.5365 439.309 44.7415 439.4 44.9238C439.501 45.097 439.66 45.2565 439.879 45.4023C440.098 45.5482 440.38 45.6849 440.727 45.8125C441.082 45.931 441.52 46.0404 442.039 46.1406C443.105 46.3594 444.058 46.6465 444.896 47.002C445.735 47.3483 446.4 47.8223 446.893 48.4238C447.385 49.0163 447.631 49.7956 447.631 50.7617C447.631 51.418 447.485 52.0195 447.193 52.5664C446.902 53.1133 446.482 53.5918 445.936 54.002C445.389 54.403 444.732 54.7174 443.967 54.9453C443.21 55.1641 442.358 55.2734 441.41 55.2734C440.034 55.2734 438.867 55.0273 437.91 54.5352C436.962 54.043 436.242 53.4186 435.75 52.6621C435.267 51.8965 435.025 51.1126 435.025 50.3105H438.758C438.776 50.8483 438.913 51.2812 439.168 51.6094C439.432 51.9375 439.765 52.1745 440.166 52.3203C440.576 52.4661 441.018 52.5391 441.492 52.5391C442.003 52.5391 442.426 52.4707 442.764 52.334C443.101 52.1882 443.356 51.9967 443.529 51.7598C443.712 51.5137 443.803 51.2311 443.803 50.9121ZM461.316 40.207V55H457.365V40.207H461.316ZM457.119 36.3516C457.119 35.7773 457.32 35.3034 457.721 34.9297C458.122 34.556 458.66 34.3691 459.334 34.3691C459.999 34.3691 460.533 34.556 460.934 34.9297C461.344 35.3034 461.549 35.7773 461.549 36.3516C461.549 36.9258 461.344 37.3997 460.934 37.7734C460.533 38.1471 459.999 38.334 459.334 38.334C458.66 38.334 458.122 38.1471 457.721 37.7734C457.32 37.3997 457.119 36.9258 457.119 36.3516ZM468.426 43.3652V55H464.488V40.207H468.18L468.426 43.3652ZM467.852 47.084H466.785C466.785 45.9902 466.926 45.0059 467.209 44.1309C467.492 43.2467 467.888 42.4948 468.398 41.875C468.909 41.2461 469.515 40.7676 470.217 40.4395C470.928 40.1022 471.721 39.9336 472.596 39.9336C473.288 39.9336 473.922 40.0339 474.496 40.2344C475.07 40.4349 475.562 40.7539 475.973 41.1914C476.392 41.6289 476.711 42.2077 476.93 42.9277C477.158 43.6478 477.271 44.5273 477.271 45.5664V55H473.307V45.5527C473.307 44.8965 473.215 44.3861 473.033 44.0215C472.851 43.6569 472.582 43.4017 472.227 43.2559C471.88 43.1009 471.452 43.0234 470.941 43.0234C470.413 43.0234 469.952 43.1283 469.561 43.3379C469.178 43.5475 468.859 43.8392 468.604 44.2129C468.357 44.5775 468.171 45.0059 468.043 45.498C467.915 45.9902 467.852 46.5189 467.852 47.084ZM495.236 47.9043H490.164V44.7051H495.236C496.02 44.7051 496.658 44.5775 497.15 44.3223C497.643 44.0579 498.003 43.6934 498.23 43.2285C498.458 42.7637 498.572 42.2396 498.572 41.6562C498.572 41.0638 498.458 40.5124 498.23 40.002C498.003 39.4915 497.643 39.0814 497.15 38.7715C496.658 38.4616 496.02 38.3066 495.236 38.3066H491.586V55H487.484V35.0938H495.236C496.795 35.0938 498.13 35.3763 499.242 35.9414C500.363 36.4974 501.22 37.2676 501.812 38.252C502.405 39.2363 502.701 40.362 502.701 41.6289C502.701 42.9141 502.405 44.026 501.812 44.9648C501.22 45.9036 500.363 46.6283 499.242 47.1387C498.13 47.6491 496.795 47.9043 495.236 47.9043ZM513.105 51.6641V45.0742C513.105 44.6003 513.028 44.1947 512.873 43.8574C512.718 43.5111 512.477 43.2422 512.148 43.0508C511.829 42.8594 511.415 42.7637 510.904 42.7637C510.467 42.7637 510.089 42.8411 509.77 42.9961C509.451 43.1419 509.204 43.3561 509.031 43.6387C508.858 43.9121 508.771 44.2357 508.771 44.6094H504.834C504.834 43.9805 504.98 43.3835 505.271 42.8184C505.563 42.2533 505.987 41.7565 506.543 41.3281C507.099 40.8906 507.76 40.5488 508.525 40.3027C509.3 40.0566 510.166 39.9336 511.123 39.9336C512.271 39.9336 513.292 40.125 514.186 40.5078C515.079 40.8906 515.781 41.4648 516.291 42.2305C516.811 42.9961 517.07 43.9531 517.07 45.1016V51.4316C517.07 52.2428 517.12 52.9082 517.221 53.4277C517.321 53.9382 517.467 54.3848 517.658 54.7676V55H513.68C513.488 54.599 513.342 54.0977 513.242 53.4961C513.151 52.8854 513.105 52.2747 513.105 51.6641ZM513.625 45.9902L513.652 48.2188H511.451C510.932 48.2188 510.48 48.278 510.098 48.3965C509.715 48.515 509.4 48.6836 509.154 48.9023C508.908 49.112 508.726 49.3581 508.607 49.6406C508.498 49.9232 508.443 50.2331 508.443 50.5703C508.443 50.9076 508.521 51.2129 508.676 51.4863C508.831 51.7507 509.054 51.9603 509.346 52.1152C509.637 52.2611 509.979 52.334 510.371 52.334C510.964 52.334 511.479 52.2155 511.916 51.9785C512.354 51.7415 512.691 51.4499 512.928 51.1035C513.174 50.7572 513.301 50.429 513.311 50.1191L514.35 51.7871C514.204 52.1608 514.003 52.5482 513.748 52.9492C513.502 53.3503 513.188 53.7285 512.805 54.084C512.422 54.4303 511.962 54.7174 511.424 54.9453C510.886 55.1641 510.248 55.2734 509.51 55.2734C508.571 55.2734 507.719 55.0866 506.953 54.7129C506.197 54.3301 505.595 53.806 505.148 53.1406C504.711 52.4661 504.492 51.7005 504.492 50.8438C504.492 50.069 504.638 49.3809 504.93 48.7793C505.221 48.1777 505.65 47.6719 506.215 47.2617C506.789 46.8424 507.505 46.528 508.361 46.3184C509.218 46.0996 510.212 45.9902 511.342 45.9902H513.625ZM527.352 40.207V42.9961H518.738V40.207H527.352ZM520.871 36.5566H524.809V50.543C524.809 50.9714 524.863 51.2995 524.973 51.5273C525.091 51.7552 525.264 51.9147 525.492 52.0059C525.72 52.0879 526.007 52.1289 526.354 52.1289C526.6 52.1289 526.818 52.1198 527.01 52.1016C527.21 52.0742 527.379 52.0469 527.516 52.0195L527.529 54.918C527.192 55.0273 526.827 55.1139 526.436 55.1777C526.044 55.2415 525.611 55.2734 525.137 55.2734C524.271 55.2734 523.514 55.1322 522.867 54.8496C522.229 54.5579 521.737 54.0931 521.391 53.4551C521.044 52.8171 520.871 51.9785 520.871 50.9395V36.5566ZM536.84 40.207V42.9961H528.227V40.207H536.84ZM530.359 36.5566H534.297V50.543C534.297 50.9714 534.352 51.2995 534.461 51.5273C534.579 51.7552 534.753 51.9147 534.98 52.0059C535.208 52.0879 535.495 52.1289 535.842 52.1289C536.088 52.1289 536.307 52.1198 536.498 52.1016C536.699 52.0742 536.867 52.0469 537.004 52.0195L537.018 54.918C536.68 55.0273 536.316 55.1139 535.924 55.1777C535.532 55.2415 535.099 55.2734 534.625 55.2734C533.759 55.2734 533.003 55.1322 532.355 54.8496C531.717 54.5579 531.225 54.0931 530.879 53.4551C530.533 52.8171 530.359 51.9785 530.359 50.9395V36.5566ZM545.891 55.2734C544.742 55.2734 543.712 55.0911 542.801 54.7266C541.889 54.3529 541.115 53.8379 540.477 53.1816C539.848 52.5254 539.365 51.7643 539.027 50.8984C538.69 50.0234 538.521 49.0938 538.521 48.1094V47.5625C538.521 46.4414 538.681 45.416 539 44.4863C539.319 43.5566 539.775 42.75 540.367 42.0664C540.969 41.3828 541.698 40.8587 542.555 40.4941C543.411 40.1204 544.378 39.9336 545.453 39.9336C546.501 39.9336 547.431 40.1068 548.242 40.4531C549.053 40.7995 549.732 41.2917 550.279 41.9297C550.835 42.5677 551.255 43.3333 551.537 44.2266C551.82 45.1107 551.961 46.0951 551.961 47.1797V48.8203H540.203V46.1953H548.092V45.8945C548.092 45.3477 547.992 44.86 547.791 44.4316C547.6 43.9941 547.308 43.6478 546.916 43.3926C546.524 43.1374 546.023 43.0098 545.412 43.0098C544.893 43.0098 544.446 43.1237 544.072 43.3516C543.699 43.5794 543.393 43.8984 543.156 44.3086C542.928 44.7188 542.755 45.2018 542.637 45.7578C542.527 46.3047 542.473 46.9062 542.473 47.5625V48.1094C542.473 48.7018 542.555 49.2487 542.719 49.75C542.892 50.2513 543.133 50.6842 543.443 51.0488C543.762 51.4134 544.145 51.696 544.592 51.8965C545.048 52.097 545.562 52.1973 546.137 52.1973C546.848 52.1973 547.508 52.0605 548.119 51.7871C548.739 51.5046 549.272 51.0807 549.719 50.5156L551.633 52.5938C551.323 53.0404 550.899 53.4688 550.361 53.8789C549.833 54.2891 549.195 54.6263 548.447 54.8906C547.7 55.1458 546.848 55.2734 545.891 55.2734ZM558.141 43.4336V55H554.203V40.207H557.908L558.141 43.4336ZM562.598 40.1113L562.529 43.7617C562.338 43.7344 562.105 43.7116 561.832 43.6934C561.568 43.666 561.326 43.6523 561.107 43.6523C560.551 43.6523 560.068 43.7253 559.658 43.8711C559.257 44.0078 558.92 44.2129 558.646 44.4863C558.382 44.7598 558.182 45.0924 558.045 45.4844C557.917 45.8763 557.844 46.3229 557.826 46.8242L557.033 46.5781C557.033 45.6211 557.129 44.7415 557.32 43.9395C557.512 43.1283 557.79 42.4219 558.154 41.8203C558.528 41.2188 558.984 40.7539 559.521 40.4258C560.059 40.0977 560.674 39.9336 561.367 39.9336C561.586 39.9336 561.809 39.9518 562.037 39.9883C562.265 40.0156 562.452 40.0566 562.598 40.1113ZM568.312 43.3652V55H564.375V40.207H568.066L568.312 43.3652ZM567.738 47.084H566.672C566.672 45.9902 566.813 45.0059 567.096 44.1309C567.378 43.2467 567.775 42.4948 568.285 41.875C568.796 41.2461 569.402 40.7676 570.104 40.4395C570.814 40.1022 571.607 39.9336 572.482 39.9336C573.175 39.9336 573.809 40.0339 574.383 40.2344C574.957 40.4349 575.449 40.7539 575.859 41.1914C576.279 41.6289 576.598 42.2077 576.816 42.9277C577.044 43.6478 577.158 44.5273 577.158 45.5664V55H573.193V45.5527C573.193 44.8965 573.102 44.3861 572.92 44.0215C572.738 43.6569 572.469 43.4017 572.113 43.2559C571.767 43.1009 571.339 43.0234 570.828 43.0234C570.299 43.0234 569.839 43.1283 569.447 43.3379C569.064 43.5475 568.745 43.8392 568.49 44.2129C568.244 44.5775 568.057 45.0059 567.93 45.498C567.802 45.9902 567.738 46.5189 567.738 47.084Z" fill="white"/>
<path d="M1689 48.0001L1679 42.2266L1679 53.7736L1689 48.0001ZM675 49L1680 49.0001L1680 47.0001L675 47L675 49Z" fill="#FF6B00"/>
<path d="M171 45L161 39.2265L161 50.7735L171 45ZM-8.74228e-08 46L162 46L162 44L8.74228e-08 44L-8.74228e-08 46Z" fill="#FF6B00"/>
</svg>
