<svg width="50" height="50" viewBox="0 0 50 50" fill="none" xmlns="http://www.w3.org/2000/svg">
<path d="M26.5146 42.3186C26.7026 42.5175 26.8495 42.7515 26.9471 43.0072C27.0446 43.2629 27.0908 43.5353 27.0831 43.8088C27.0753 44.0824 27.0138 44.3517 26.902 44.6015C26.7901 44.8512 26.6302 45.0765 26.4313 45.2645C26.2324 45.4524 25.9984 45.5994 25.7427 45.6969C25.4871 45.7944 25.2147 45.8406 24.9411 45.8329C24.6676 45.8252 24.3982 45.7636 24.1485 45.6518C23.8987 45.54 23.6734 45.38 23.4855 45.1811L5.77713 26.4311C5.41143 26.0443 5.20766 25.5322 5.20766 24.9999C5.20766 24.4676 5.41143 23.9554 5.77713 23.5686L23.4855 4.81656C23.6722 4.6133 23.8974 4.44917 24.1481 4.33371C24.3988 4.21824 24.6699 4.15373 24.9457 4.14393C25.2215 4.13413 25.4966 4.17924 25.7548 4.27662C26.0131 4.37401 26.2494 4.52174 26.45 4.71123C26.6507 4.90071 26.8117 5.12819 26.9237 5.38043C27.0357 5.63267 27.0965 5.90466 27.1025 6.18059C27.1085 6.45652 27.0597 6.7309 26.9587 6.98778C26.8578 7.24466 26.7069 7.47892 26.5146 7.67697L10.1563 24.9999L26.5146 42.3186Z" fill="#699BF7"/>
</svg>
