<svg width="50" height="50" viewBox="0 0 50 50" fill="none" xmlns="http://www.w3.org/2000/svg">
<path d="M23.4854 7.68136C23.2974 7.48246 23.1505 7.24849 23.0529 6.99281C22.9554 6.73712 22.9092 6.46473 22.9169 6.19119C22.9247 5.91764 22.9862 5.6483 23.098 5.39853C23.2099 5.14877 23.3698 4.92348 23.5687 4.73553C23.7676 4.54757 24.0016 4.40064 24.2573 4.3031C24.5129 4.20557 24.7853 4.15935 25.0589 4.16709C25.3324 4.17483 25.6018 4.23637 25.8515 4.3482C26.1013 4.46003 26.3266 4.61996 26.5145 4.81886L44.2229 23.5689C44.5886 23.9557 44.7923 24.4678 44.7923 25.0001C44.7923 25.5324 44.5886 26.0446 44.2229 26.4314L26.5145 45.1834C26.3278 45.3867 26.1026 45.5508 25.8519 45.6663C25.6012 45.7818 25.3301 45.8463 25.0543 45.8561C24.7785 45.8659 24.5034 45.8208 24.2452 45.7234C23.9869 45.626 23.7506 45.4783 23.55 45.2888C23.3493 45.0993 23.1883 44.8718 23.0763 44.6196C22.9643 44.3673 22.9035 44.0953 22.8975 43.8194C22.8915 43.5435 22.9403 43.2691 23.0413 43.0122C23.1422 42.7553 23.2931 42.5211 23.4854 42.323L39.8437 25.0001L23.4854 7.68136Z" fill="#699BF7"/>
</svg>
